/* XPM */
static char *free2[] = {
/* columns rows colors chars-per-pixel */
"64 64 176 2 ",
"   c None",
".  c #215C20",
"X  c #215D20",
"o  c #225E20",
"O  c #225E21",
"+  c #235F21",
"@  c #236021",
"#  c #236022",
"$  c #236122",
"%  c #246122",
"&  c #246222",
"*  c #246322",
"=  c #246223",
"-  c #256223",
";  c #246323",
":  c #256323",
">  c #256423",
",  c #256523",
"<  c #256424",
"1  c #266424",
"2  c #266524",
"3  c #266525",
"4  c #256624",
"5  c #266624",
"6  c #266724",
"7  c #266625",
"8  c #276625",
"9  c #266725",
"0  c #276725",
"q  c #266526",
"w  c #266626",
"e  c #276626",
"r  c #276726",
"t  c #276727",
"y  c #276825",
"u  c #276925",
"i  c #276826",
"p  c #276827",
"a  c #286826",
"s  c #286926",
"d  c #286827",
"f  c #286927",
"g  c #296927",
"h  c #286A26",
"j  c #286B26",
"k  c #286A27",
"l  c #296A27",
"z  c #286B27",
"x  c #296B27",
"c  c #286C26",
"v  c #296C27",
"b  c #296D27",
"n  c #266728",
"m  c #276728",
"M  c #276828",
"N  c #276829",
"B  c #276929",
"V  c #286928",
"C  c #286A28",
"Z  c #296A28",
"A  c #286B28",
"S  c #296B28",
"D  c #286A29",
"F  c #296B29",
"G  c #2A6B28",
"H  c #286A2A",
"J  c #286B2A",
"K  c #296B2A",
"L  c #296B2B",
"P  c #296C28",
"I  c #296C29",
"U  c #2A6C28",
"Y  c #2A6D28",
"T  c #2A6C29",
"R  c #296C2A",
"E  c #296C2B",
"W  c #2A6C2A",
"Q  c #2A6D2A",
"!  c #2A6C2B",
"~  c #2A6D2B",
"^  c #2B6E2B",
"/  c #286C2C",
"(  c #296D2C",
")  c #296D2D",
"_  c #2A6E2C",
"`  c #2B6F2C",
"'  c #2A6E2D",
"]  c #2A6F2D",
"[  c #2B6F2D",
"{  c #296F2F",
"}  c #2B702E",
"|  c #2B702F",
" . c #2B712F",
".. c #2C702D",
"X. c #2C712E",
"o. c #2D712E",
"O. c #2C712F",
"+. c #2D722E",
"@. c #2D722F",
"#. c #2A7030",
"$. c #2A7130",
"%. c #2B7131",
"&. c #2B7231",
"*. c #2C7130",
"=. c #2C7230",
"-. c #2D7330",
";. c #2C7331",
":. c #2D7331",
">. c #2C7332",
",. c #2D7332",
"<. c #2C7431",
"1. c #2E7430",
"2. c #2E7531",
"3. c #2C7432",
"4. c #2D7432",
"5. c #2D7532",
"6. c #2C7433",
"7. c #2D7433",
"8. c #2D7533",
"9. c #2E7432",
"0. c #2E7532",
"q. c #2E7533",
"w. c #2F7632",
"e. c #2E7633",
"r. c #2F7633",
"t. c #2D7534",
"y. c #2E7534",
"u. c #2D7634",
"i. c #2E7634",
"p. c #2F7634",
"a. c #2E7734",
"s. c #2F7734",
"d. c #2E7635",
"f. c #2F7635",
"g. c #2E7735",
"h. c #2F7735",
"j. c #2F7835",
"k. c #2F7935",
"l. c #2F7836",
"z. c #2F7936",
"x. c #2F7A36",
"c. c #307835",
"v. c #307935",
"b. c #317935",
"n. c #307836",
"m. c #307936",
"M. c #307937",
"N. c #307A36",
"B. c #317A36",
"V. c #307A37",
"C. c #317A37",
"Z. c #307B37",
"A. c #317B37",
"S. c #307C37",
"D. c #317C37",
"F. c #307D37",
"G. c #317A38",
"H. c #317B38",
"J. c #327B38",
"K. c #317C38",
"L. c #327C38",
"P. c #327D38",
"I. c #327C39",
"U. c #327D39",
"Y. c #337D39",
"T. c #327E39",
"R. c #337E39",
"E. c #327F39",
"W. c #337F39",
"Q. c #337D3A",
"!. c #337E3A",
"~. c #337F3A",
"^. c #347F3A",
"/. c #347F3B",
"(. c #328039",
"). c #33813A",
/* pixels */
"                                                                                                                                ",
"                                                                                                                                ",
"                                                                                                                                ",
"                                                                                                                                ",
"                                                                                                                                ",
"                                                                                                                                ",
"                                                                                                                                ",
"                                                              R.D.l.h.h.                                                        ",
"                                                            D.R.D.l.h.T T i                                                     ",
"                                      < <                 D.D.R.R.D.h.h.T < <                                                   ",
"                                  s < < < < <           ).R.R.R.R.h.h.D.| X X <                                                 ",
"                                < < < < < < < T         D.D.D.D.h.h.h.h.T < < <                                                 ",
"                              < < < < < < < < T D.    R.D.h.D.D.l.h.l.D.T < < < s                                               ",
"                              < < < < < < < < T h.R.  R.D.D.R.R.l.h.D.R.T < < < <                                               ",
"                            s < < < < < < < s T h.h.D.R.R.R.R.R.l.l.h.D.M < < < <                                               ",
"                            < < < < < < < s s T D.l.D.R.R.R.R.D.h.h.h.l.n < < < <                                               ",
"                            < X < < < < s s i s D.R.R.D.R.R.D.h.h.h.l.h.T < < < < s                                             ",
"                          < < < < < < < s < < < h.R.R.D.D.D.l.h.h.h.h.h.M < < < < s   s < s s s T                               ",
"                          s < < < < < < < < < < h.D.D.D.h.D.D.h.h.h.h.h.n < < < < < s i < < s T s s                             ",
"                          i < < < < < < < < < i h.h.h.h.l.D.D.h.h.D.l.h.T < < < < < i s s s s T s < T                           ",
"                          i < < < < < < < < < s h.D.D.D.D.D.D.h.h.l.l.l.T < < < < < < < s s < s i < T l.                        ",
"                            < < < < < < < < < < h.R.R.D.h.D.l.D.D.h.R.l.T < < < < < < < < < < < < < T h.                        ",
"                            < X < < < < < < < < h.R.h.h.h.D.D.D.h.h.D.D.T < < < < < < s < < < < < < T h.D.                      ",
"                            < < < < < < < < < < | R.h.l.l.h.h.D.h.D.R.D.T < < < < i s i < < < i < < T h.D.                      ",
"                            < < < < < s s < < < | l.h.D.D.h.h.h.h.R.R.D.T < < < < < < < s s < < < < T D.D.                      ",
"                              < < < < s T s < < T h.h.h.h.h.h.h.D.D.D.D.T < < < < < < < s < < < i < T D.D.D.                    ",
"                              < < < < s T s < < | h.h.h.l.h.h.l.h.l.D.h.T < < < < < < < i < < < < < T l.D.D.                    ",
"                  h.h.< < < < < < < < s T s < s T h.h.D.h.h.h.h.h.h.l.h.T < < < < < < < < < < < < < T l.D.R.                    ",
"                h.h.h.T < < < < < < s s s s s < T D.D.h.h.h.h.h.h.h.h.h.T < < < < < < < < < < < < < T l.D.R.                    ",
"              D.h.D.D.T < < s < s s i < s s s < T D.D.l.h.h.l.h.h.l.h.h.< < < < < < < < < < < < < < T D.D.D.                    ",
"            l.h.D.D.D.T s s s s s s < < s s s s T h.h.h.h.h.l.h.h.D.h.h.T < < < < < s < < < < < < < T l.l.h.                    ",
"          R.D.h.l.D.D.T s s s < < < s < < < < i | h.h.h.h.h.l.l.h.l.h.h.T < < < < < < < < < < < < < T l.l.l.                    ",
"          l.D.D.D.D.D.T < s < < < < < < < < < s | D.l.D.l.l.D.D.h.h.h.h.T < < < < < i < < < < < < < T h.h.                      ",
"        l.l.D.R.R.D.D.T < < < < < < < < s < < s T R.h.D.h.l.D.R.h.h.h.D.T s < < s i s < < < < < < < T h.h.                      ",
"        l.D.R.D.h.D.D.T < s < < s < < s s < < s T D.l.h.h.l.D.D.h.h.D.D.T s < < < s s s < < < < < < T h.h.                      ",
"        h.D.D.R.R.D.h.T < s s < < < s s s < < s T h.h.h.h.h.l.l.h.h.D.D.T s < < < s s s < < < < < < T h.h.R.l.h.                ",
"      h.D.R.D.R.R.D.l.| s s s < < < < s s < < < T h.D.l.h.h.D.D.l.R.D.l.T < i i < < < < < < < < < < T h.D.D.D.D.l.              ",
"      D.R.D.D.D.R.R.R.| T s < < < < < < s < X < M D.D.h.h.h.R.R.R.R.R.R.T < < < < < < < < < < < < < T h.h.l.D.l.h.h.            ",
"      l.D.D.D.D.D.R.R.h.s < < < < < < < s < X < s D.D.l.l.l.R.D.h.l.D.D.T < < < < < < < < < < < < < T h.h.l.h.h.h.h.D.          ",
"      R.D.D.R.R.R.R.R.T < < < s s < < < s < < < T h.l.D.D.D.D.h.h.h.R.D.T < < < s < < < < < < < < < h.h.h.D.l.h.h.l.D.          ",
"      R.R.R.R.R.R.D.D.T < < s < s < < < s < < < i l.D.R.D.l.h.h.h.D.D.h.s < < < s < < < < < < < < s h.h.h.D.l.h.l.h.D.R.        ",
"      R.R.D.R.R.D.D.R.h.< < < < s < < < < < < < < D.D.R.D.h.h.h.h.h.D.l.T < i < i < < < < < < < < s h.h.h.D.D.D.R.D.D.D.        ",
"      R.D.l.D.h.l.R.R.h.< < < < < < < < < < < < < h.R.D.l.D.R.R.R.D.R.D.T < < y s < < < < < < < < < h.l.h.h.l.D.D.D.D.D.        ",
"      R.D.l.h.h.h.D.R.h.s < < s < < < i s < < < s h.D.R.h.D.R.R.R.R.R.D.T s < s < < < < < < i s s i h.l.D.h.l.D.h.l.D.R.        ",
"      ).D.l.h.D.D.R.R.h.s s s s s < s s < < < < s h.D.l.h.l.D.R.l.R.R.R.T s s < < s < < < < < s s s h.h.h.h.h.l.h.h.D.D.        ",
"        D.l.h.D.D.R.R.h.s s < < i < s < < < < < T h.D.h.h.h.h.l.D.R.D.R.| i < < < s i < < < < s < T D.D.h.h.h.l.h.h.l.D.        ",
"        D.h.h.D.h.D.D.h.T i < < < < < < s < < < T h.l.l.h.h.h.l.l.D.D.D.| < s < < < < < < < < < < < h.R.l.h.h.h.h.h.h.D.        ",
"        D.h.D.D.l.D.D.h.i < < < < < < s s s < < s h.h.h.h.h.l.h.l.D.D.D.| s < < < < < < < < < < < T h.h.l.l.h.h.l.h.h.h.        ",
"          D.h.D.h.l.D.h.i < < < s s s s T s < < i h.h.h.h.h.h.h.l.R.R.R.T < < < s s s < < < < < < T h.h.h.D.D.D.D.D.D.h.        ",
"          D.h.h.D.l.D.h.s s < < s s s s < < < < s h.h.h.h.h.h.D.h.D.D.D.T < < T s s < < < < < < < i h.h.h.D.D.R.R.D.D.h.        ",
"          D.h.D.l.h.R.s.s T s s < i i < < s < < s h.h.h.h.h.h.D.D.l.h.l.h.< < i < < < < < s < < < < h.h.h.D.l.D.R.l.l.          ",
"            D.l.h.D.R.D.T s < s < < < < < s < < < h.h.h.h.h.h.h.l.D.h.D.h.< s s < s s < < < < < < < h.h.l.D.D.D.R.D.h.          ",
"            l.h.h.R.R.h.s < < < < s < < i < s s < h.h.h.h.h.h.h.h.D.D.l.h.s s s s s s i < < < < < T h.h.D.D.l.D.R.D.            ",
"            D.h.h.R.R.h.< < < < s < s < < i s s s h.h.h.h.h.h.h.h.l.D.D.h.s s s s s < < < < < < s T h.h.R.R.l.l.R.D.            ",
"              D.h.R.R.D.T s < < s < < < < < s s < h.l.h.h.h.h.h.h.l.D.D.h.< < < s s s s s < < < < s h.l.l.D.D.D.R.D.            ",
"                D.R.D.h.T s < < i < < < < s s T s h.D.l.h.h.h.h.h.h.h.l.h.< < < < < s s s s T s i T l.l.D.                      ",
"                  R.R.D.T s < < < < < s s s s i s h.h.h.h.h.h.D.D.D.l.  h.  < s i <                                             ",
"                                                                                                                                ",
"                                                                                                                                ",
"                                                                                                                                ",
"                                                                                                                                ",
"                                                                                                                                ",
"                                                                                                                                ",
"                                                                                                                                "
};
