/* XPM */
static char *goal[] = {
/* columns rows colors chars-per-pixel */
"64 64 128 2 ",
"   c None",
".  c #1A782D",
"X  c #1B782D",
"o  c #1A792D",
"O  c #1A7A2D",
"+  c #1B7A2E",
"@  c #1B7B2E",
"#  c #1C7B2F",
"$  c #1B7C2F",
"%  c #1C7C2F",
"&  c #1C7D2F",
"*  c #1C7E2F",
"=  c #1C7C30",
"-  c #1C7D30",
";  c #1D7D30",
":  c #1C7E30",
">  c #1D7E30",
",  c #1C7F30",
"<  c #1D7F30",
"1  c #1D7E31",
"2  c #1D7F31",
"3  c #1E7F31",
"4  c #1D7F32",
"5  c #1E7F32",
"6  c #1D8031",
"7  c #1D8131",
"8  c #1E8031",
"9  c #1D8331",
"0  c #1D8032",
"q  c #1D8132",
"w  c #1E8032",
"e  c #1E8132",
"r  c #1F8033",
"t  c #1E8133",
"y  c #1F8133",
"u  c #1D8232",
"i  c #1D8332",
"p  c #1E8232",
"a  c #1E8332",
"s  c #1E8233",
"d  c #1F8233",
"f  c #1E8333",
"g  c #1F8333",
"h  c #1D8431",
"j  c #1E8432",
"k  c #1E8433",
"l  c #1F8433",
"z  c #1E8533",
"x  c #1F8533",
"c  c #1E8633",
"v  c #1F8034",
"b  c #1F8234",
"n  c #1F8334",
"m  c #1F8434",
"M  c #1E8534",
"N  c #1F8534",
"B  c #1F8435",
"V  c #1F8634",
"C  c #1E8734",
"Z  c #1F8734",
"A  c #1F8635",
"S  c #1F8735",
"D  c #1F8834",
"F  c #1F8934",
"G  c #1F8835",
"H  c #1F8935",
"J  c #1F8A35",
"K  c #1F8B35",
"L  c #208334",
"P  c #208434",
"I  c #208534",
"U  c #208435",
"Y  c #208535",
"T  c #208635",
"R  c #208735",
"E  c #208536",
"W  c #208636",
"Q  c #218636",
"!  c #208736",
"~  c #218737",
"^  c #228737",
"/  c #208835",
"(  c #208935",
")  c #208A34",
"_  c #208A35",
"`  c #208B35",
"'  c #208836",
"]  c #208936",
"[  c #218936",
"{  c #218937",
"}  c #228837",
"|  c #208A36",
" . c #208B36",
".. c #218A37",
"X. c #208C36",
"o. c #208D36",
"O. c #208C37",
"+. c #208D37",
"@. c #218D37",
"#. c #208E36",
"$. c #218E37",
"%. c #218F37",
"&. c #218838",
"*. c #228A38",
"=. c #228B38",
"-. c #218D38",
";. c #228D38",
":. c #228C39",
">. c #218E38",
",. c #218F38",
"<. c #209036",
"1. c #209037",
"2. c #219037",
"3. c #209137",
"4. c #219137",
"5. c #219038",
"6. c #229038",
"7. c #219238",
"8. c #229238",
"9. c #229239",
"0. c #229339",
"q. c #23913A",
"w. c #219539",
"e. c #229439",
"r. c #23953A",
"t. c #23943B",
"y. c #23963B",
"u. c #249B3C",
/* pixels */
"                                                                                                                                ",
"                                                                                                                                ",
"    Z ,.9.9._ Z Z 9.9.5 _ 9.G U 9._ ,.9.1.1.1.G Z _ _ _ _ G _ _ 9.9.9.Z Z G G _ Z G _ Z _ G _ Z U 9.% Z G _ 1._ U _ _ _ Z       ",
"  Z Z Z 5 Z Z Z Z Z 5 5 Z 5 5 5 5 5 Z Z Z Z Z 5 5 5 5 5 Z 5 Z Z Z Z Z 5 5 Z 5 5 % 5 5 Z Z Z 5 5 Z 5 5 % Z Z % 5 5 5 5 5 5 Z     ",
"  Z U Z 5 Z Z Z Z 5 5 5 Z Z 5 5 Z Z Z Z 5 Z 5 5 % 5 Z 5 5 5 Z Z 5 Z Z 5 Z 5 5 5 5 Z Z Z Z Z 5 5 Z Z Z 5 5 5 5 5 5 5 5 5 5 Z     ",
"  5 Z Z 5 5 Z 5 5 5 5 5 Z 5 Z _                                                                 5 Z 5 5 Z Z Z 5 % 5 5 5 Z Z     ",
"  Z Z Z Z Z 5 Z Z Z Z Z Z 5 5                                                                   Z Z Z 5 5 5 Z Z 5 5 Z 5 Z U     ",
"  _ Z U Z U Z 5 5 5 Z Z Z 5 5                                                                   Z 5 5 Z 5 5 5 5 5 Z Z Z 5 Z     ",
"  ,.Z U U Z Z Z 5 5 5 Z Z % 5                   Z 5 5 Z Z                                       Z Z 5 Z Z 5 5 5 5 Z Z 5 5 Z     ",
"  ,.Z Z Z Z Z 5 Z Z 5 Z 5 5 5               _ Z 5 5 5 5 5 _                                     Z 5 5 Z Z Z Z 5 5 5 5 5 5 Z     ",
"  ,.Z 5 Z 5 5 5 Z 5 5 5 5 5 %               Z 5 5 5 Z 5 5 Z                                     U Z 5 Z Z Z 5 Z Z 5 5 5 5 Z     ",
"  U Z Z 5 5 Z Z Z 5 5 5 Z 5 5             Z 5 5 5 5 Z 5 5 Z _                                   5 5 Z Z Z 5 5 5 Z Z 5 5 5 Z     ",
"  _ Z Z Z 5 5 5 5 Z Z 5 5 5 5             Z 5 Z 5 5 Z Z Z Z Z                                   Z 5 Z U Z 5 5 5 Z Z 5 % % 5     ",
"  Z Z Z Z Z 5 5 5 Z Z 5 5 5 5             _ 5 Z 5 Z Z Z Z 5 Z                                   Z Z Z Z Z 5 5 5 Z Z 5 % % %     ",
"  Z 5 Z Z Z Z 5 Z Z Z 5 5 5 Z               Z Z Z Z Z Z 5 Z                                     Z 5 5 5 Z 5 Z Z Z Z 5 % % 5     ",
"  U Z Z Z Z Z 5 5 5 Z 5 5 Z Z                 Z 5 5 Z Z Z Z                                     5 % % 5 5 5 5 5 5 5 5 5 5 Z     ",
"  Z Z 5 5 5 5 5 % % 5 5 5 Z Z                   G Z Z Z                                         Z 5 % % % 5 5 5 5 5 5 5 5 Z     ",
"  Z 5 5 5 Z Z 5 5 % 5 5 Z 5 Z                                                                   Z Z 5 5 5 5 5 5 5 Z Z Z Z Z     ",
"  Z 5 Z 5 % 5 5 Z Z 5 5 5 5 Z                         Z Z Z 5 Z Z Z Z Z Z Z Z ,._ 5             U Z % % 5 5 5 5 5 Z Z Z Z Z     ",
"  Z Z 5 % % Z Z Z % % 5 5 Z Z                     G Z Z Z Z 5 Z 5 5 Z Z Z 5 Z Z Z 5 5           Z 5 5 5 % 5 5 5 5 5 Z Z Z Z     ",
"  Z 5 5 % 5 5 Z 5 5 5 5 5 5 5                   Z 5 5 5 5 5 Z Z Z Z Z 5 5 5 5 Z Z Z 5 Z         Z 5 5 % 5 5 5 5 5 5 Z Z 5 Z     ",
"  5 Z Z 5 Z 5 5 5 5 5 5 % 5 5                 % 5 5 5 5 5 5 5 Z Z Z 5 5 5 5 Z 5 5 Z Z U         Z 5 5 5 5 5 5 5 5 5 Z 5 5 Z     ",
"  Z U U Z 5 5 5 5 5 5 5 5 5 5                 Z 5 5 5 5 5 5 5 5 Z Z 5 Z       Z Z Z Z Z Z       Z 5 % 5 5 Z Z 5 5 5 Z 5 5 Z     ",
"  U Z Z Z 5 5 5 5 5 5 5 5 5 5               U U Z 5 5 5 5 5 5 5 Z 5 5 Z         Z Z Z Z Z       Z % % 5 Z Z Z Z % 5 Z 5 5 Z     ",
"  Z Z Z Z Z 5 5 5 5 5 5 5 5 Z             Z U U Z Z 5 5 % 5 Z 5 5 5 5 5 Z         Z Z Z Z Z     Z 5 % 5 Z Z 5 5 5 5 Z 5 5 Z     ",
"  Z Z Z 5 Z 5 5 5 5 5 Z Z Z 5 5       _ Z 5 U Z 5 5 5 % % 5 Z 5 5 5 Z Z 5         Z Z 5 % %     Z 5 5 5 5 5 5 5 5 5 5 5 5 Z     ",
"  U 5 % % 5 5 5 5 5 5 Z Z Z Z 5 5 Z 5 5 5 Z Z 5 Z 5 5 5 5 Z Z Z 5 Z Z Z 5 Z         _ 5 % Z     5 5 Z Z 5 5 Z 5 5 5 5 Z Z Z     ",
"  U 5 % 5 5 5 5 5 Z 5 Z Z Z Z 5 Z Z 5 5 5 5 Z Z     Z 5 5 Z Z 5 5 Z 5 Z 5 5           5 % 5     Z Z 5 Z 5 5 Z 5 5 5 Z Z Z Z     ",
"  Z % % 5 Z 5 5 5 5 5 Z Z Z Z Z Z 5 5 5 Z Z Z         Z Z 5 5 5 5 Z Z 5 Z Z _         _ Z       Z 5 5 5 5 % 5 5 5 5 5 Z Z Z     ",
"  5 5 5 5 5 Z Z 5 5 5 5 Z Z Z Z Z Z Z Z Z             5 Z 5 5 Z Z Z 5 5 Z Z _                   _ Z 5 Z 5 5 5 5 5 Z Z 5 Z Z     ",
"  . 5 5 5 5 Z Z 5 5 5 5 Z Z Z u.                        5 5 5 5 Z 5 5 5 5 5 Z                   _ Z Z 5 5 Z 5 5 Z Z Z Z Z Z     ",
"  % 5 5 5 % 5 Z 5 5 5 Z 5 Z Z                           Z Z 5 5 Z 5 % 5 Z Z Z                   Z Z Z 5 5 5 5 5 5 Z Z Z Z U     ",
"  % 5 % 5 Z Z Z 5 5 5 Z Z Z U                           _ Z Z 5 5 5 5 5 Z 5 5 G                 Z 5 5 5 5 5 Z 5 5 5 Z 5 5 U     ",
"  5 5 % 5 5 Z Z 5 5 5 5 Z Z Z                           Z Z 5 5 5 5 5 5 Z 5 5 Z                 Z 5 5 5 5 5 5 Z Z 5 5 5 Z _     ",
"  % % % 5 5 Z Z 5 5 5 5 5 Z Z                           5 5 5 5 Z Z 5 5 5 5 5 Z                 5 5 5 5 5 Z Z Z Z Z 5 5 Z 5     ",
"  % % % % 5 Z Z 5 5 5 Z 5 Z Z                           Z Z Z 5 Z 5 5 5 5 5 5 Z                 Z 5 5 5 5 5 Z Z Z 5 5 5 5 %     ",
"  Z 5 % % 5 Z 5 Z 5 Z 5 5 Z Z                         _ Z Z 5 Z 5 Z Z 5 5 Z 5 Z                 Z Z 5 Z 5 Z 5 Z 5 5 5 5 5 Z     ",
"  Z 5 % 5 5 Z Z Z Z 5 5 5 5 5                         Z Z 5 % % 5   _ 5 Z Z 5 Z                 Z Z Z 5 5 5 5 5 Z 5 5 Z 5 Z     ",
"  Z Z 5 5 Z Z 5 5 5 5 5 5 % 5                       _ 5 Z 5 % 5 Z   ,.5 Z Z 5 Z                 Z Z Z 5 5 5 5 5 Z 5 Z Z Z Z     ",
"  U Z 5 5 Z Z 5 5 Z 5 % 5 5 5                       U Z Z 5 5 Z     _ 5 5 5 5 5                     Z Z 5 5 5 Z 5 5 Z Z 5 Z     ",
"  _ 5 5 5 Z 5 5 5 Z Z Z 5 5 5                     _ Z Z Z Z Z Z     _ 5 5 5 5 5 Z                       Z 5 5 Z 5 % Z Z Z Z     ",
"  U Z 5 5 Z 5 5 5 5 5 Z 5 5 Z                     Z 5 5 Z U U       _ 5 5 Z 5 5 Z Z 5 5 % 5 Z Z Z Z     _ 5 5 Z 5 % 5 Z Z Z     ",
"  Z 5 5 Z 5 5 5 5 Z 5 5 5 5 5                   5 5 5 5 Z U _       Z 5 Z Z 5 5 % Z 5 5 % 5 5 5 5 5 G     Z Z Z 5 5 5 5 Z Z     ",
"  Z 5 5 5 5 5 5 5 Z Z 5 5 5 Z                   Z % 5 5 Z Z           5 Z Z 5 Z Z 5 Z 5 Z 5 5 5 Z 5 Z     Z 5 5 5 5 Z Z 5 Z     ",
"  Z Z 5 5 U U Z Z U Z 5 Z Z Z                 Z Z % 5 5 Z Z           Z Z Z 5 Z Z Z U U Z 5 5 5 Z 5 Z     Z Z Z Z Z Z 5 Z Z     ",
"  _ Z Z 5 U U Z Z Z Z Z Z Z Z                 Z Z 5 5 Z Z             _ 5 5 5 Z Z U Z 5 5 5 5 Z Z Z _     Z Z Z Z Z 5 5 5 5 Z   ",
"  _ U U Z U U Z Z Z Z Z Z Z U               Z 5 5 5 Z Z _               Z Z _ Z Z _ Z Z 5 Z             9.Z Z Z 5 Z Z Z 5 5 G   ",
"  U 5 Z 5 U U Z 5 Z Z U Z Z Z               Z 5 Z Z Z Z                                               _ Z Z 5 5 5 Z 5 Z 5 5 G   ",
"  Z 5 5 Z Z Z 5 5 5 Z Z Z 5 Z             9.U Z Z Z Z Z                                         _ Z Z 5 Z Z 5 5 5 5 5 Z Z 5 _   ",
"  % 5 Z Z Z 5 5 5 5 5 Z Z 5 Z             Z Z Z Z Z Z                                           Z Z Z Z Z Z 5 5 5 5 5 Z Z Z _   ",
"  5 5 Z 5 Z 5 5 Z Z 5 Z Z Z Z             Z Z Z Z Z _                                           Z Z 5 Z 5 Z 5 5 5 Z 5 Z Z Z Z   ",
"  Z Z 5 Z Z Z Z Z Z Z 5 5 5 Z           Z Z 5 Z 5 Z                                             Z Z Z 5 5 5 5 5 5 5 5 Z Z Z 5   ",
"  Z Z Z 5 5 5 Z Z Z 5 Z Z Z Z           Z 5 Z Z 5                                               5 Z 5 5 5 5 Z 5 5 Z Z 5 Z Z U   ",
"  5 Z Z Z Z 5 5 Z Z 5 Z Z Z 5                                                                   Z Z 5 5 Z 5 Z Z 5 5 Z 5 5 Z Z   ",
"  Z Z 5 Z Z Z Z Z Z Z 5 5 5 5 Z                                                                   Z 5 5 Z Z Z Z Z 5 Z 5 5 5 G   ",
"  _ Z Z Z 5 5 Z 5 5 Z Z 5 5 5 5 Z         5 5 5 Z Z                                                 Z 5 5 Z 5 Z Z 5 Z 5 5 5 Z   ",
"  _ 5 5 Z 5 5 Z Z 5 5 5 % 5 5 5 5 Z         % 5 5 5 Z G                                               Z Z Z 5 Z Z Z Z Z 5 5 Z   ",
"  Z 5 5 Z Z 5 Z Z Z 5 5 5 5 5 Z 5 5 Z         Z 5 5 5 5 Z                                               Z 5 5 Z Z 5 5 5 5 Z _   ",
"  _ 5 5 Z Z 5 Z Z Z Z Z Z 5 5 5 5 5 5 Z         5 5 5 5 5 Z                                               Z 5 5 Z 5 5 5 Z Z Z   ",
"    5 % 5 Z 5 Z Z Z Z 5 Z 5 5 5 5 5 5 Z Z         Z Z Z Z Z Z                                               Z Z 5 5 % 5 5 Z     ",
"      9.1.9._ G Z Z _ _ Z Z G Z Z Z G Z Z Z         U Z _ ,.Z Z                                               9._ 9.9.1.9.9.    ",
"                                                                                                                                ",
"                                                                                                                                ",
"                                                                                                                                "
};
