/* XPM */
static char *item[] = {
/* columns rows colors chars-per-pixel */
"64 64 240 2 ",
"   c None",
".  c #13110F",
"X  c #171513",
"o  c #181714",
"O  c #1A1815",
"+  c #1D1C1A",
"@  c #171815",
"#  c #100E0C",
"$  c #211F1D",
"%  c #281615",
"&  c #3A1616",
"*  c #12240D",
"=  c #1A2D15",
"-  c #192613",
";  c #1B2F17",
":  c #22211E",
">  c #2A2816",
",  c #25351E",
"<  c #352817",
"1  c #252421",
"2  c #282724",
"3  c #2A2826",
"4  c #2D2C2A",
"5  c #302F2D",
"6  c #2A3C25",
"7  c #33322E",
"8  c #353432",
"9  c #3D3C3A",
"0  c #393736",
"q  c #491516",
"w  c #561516",
"e  c #651315",
"r  c #781416",
"t  c #582D1A",
"y  c #662A1A",
"u  c #66311E",
"i  c #752E17",
"p  c #403E3D",
"a  c #443621",
"s  c #6B3523",
"d  c #773925",
"f  c #772826",
"g  c #781F24",
"h  c #2F471E",
"j  c #324828",
"k  c #384934",
"l  c #395627",
"z  c #42403F",
"x  c #424C33",
"c  c #45522F",
"v  c #714D2E",
"b  c #4B6C28",
"n  c #6C6C33",
"m  c #5E431C",
"M  c #444341",
"N  c #4C4B4A",
"B  c #595857",
"V  c #554C4A",
"C  c #61615F",
"Z  c #7B754E",
"A  c #656563",
"S  c #686765",
"D  c #6E6D6B",
"F  c #696866",
"G  c #706F6D",
"H  c #776564",
"J  c #71706E",
"K  c #747371",
"L  c #7B7A79",
"P  c #881416",
"I  c #971317",
"U  c #9C0D13",
"Y  c #A71618",
"T  c #BC131A",
"R  c #B31218",
"E  c #AE0D14",
"W  c #86291B",
"Q  c #982617",
"!  c #912E16",
"~  c #A52819",
"^  c #BB3818",
"/  c #B12D14",
"(  c #901C21",
")  c #923626",
"_  c #AA3A2A",
"`  c #AF322B",
"'  c #C4131A",
"]  c #C21B08",
"[  c #CB250B",
"{  c #D32C0D",
"}  c #DC2C0A",
"|  c #D3250A",
" . c #D52A11",
".. c #CF2F12",
"X. c #E32E0A",
"o. c #E4310C",
"O. c #E53915",
"+. c #C51A22",
"@. c #CD2F2E",
"#. c #8C462D",
"$. c #92442E",
"%. c #9B442C",
"&. c #944730",
"*. c #954932",
"=. c #994C35",
"-. c #99553B",
";. c #8C512F",
":. c #AC4C34",
">. c #857323",
",. c #86692B",
"<. c #AF7030",
"1. c #D44932",
"2. c #E74E2D",
"3. c #D94519",
"4. c #D13B43",
"5. c #905543",
"6. c #A05D43",
"7. c #8C6E4F",
"8. c #A5664A",
"9. c #AB6E51",
"0. c #B5775B",
"q. c #AB6269",
"w. c #D44C47",
"e. c #D64F50",
"r. c #E65B44",
"t. c #E25450",
"y. c #DA6947",
"u. c #D57150",
"i. c #E8644A",
"p. c #E96D56",
"a. c #E87758",
"s. c #E37743",
"d. c #D47078",
"f. c #EA7966",
"g. c #E86F66",
"h. c #DD5970",
"j. c #71991F",
"k. c #718A1F",
"l. c #4D832D",
"z. c #568A2A",
"x. c #5E922A",
"c. c #599027",
"v. c #528831",
"b. c #62952C",
"n. c #69972E",
"m. c #749B20",
"M. c #77992A",
"N. c #6A9A33",
"B. c #72902C",
"V. c #75A23B",
"C. c #7E9D4E",
"Z. c #B6B03C",
"A. c #A09737",
"S. c #E88E3B",
"D. c #CCAA3C",
"F. c #E49C3E",
"G. c #AB855D",
"H. c #8A867D",
"J. c #B98765",
"K. c #B99377",
"L. c #9EAA4E",
"P. c #DB9059",
"I. c #E6865D",
"U. c #F2935F",
"Y. c #CAB341",
"T. c #F8B844",
"R. c #E9B546",
"E. c #C99371",
"W. c #ED8F6F",
"Q. c #DEAC68",
"!. c #C8B86F",
"~. c #E0AC6A",
"^. c #E2B16D",
"/. c #E8BB79",
"(. c #EEAD77",
"). c #FBC649",
"_. c #FCC94B",
"`. c #F9C347",
"'. c #FCCB52",
"]. c #FCCE5C",
"[. c #F4CC5E",
"{. c #F1C750",
"}. c #FCD268",
"|. c #EAC17E",
" X c #F8D274",
".X c #E57A95",
"XX c #CF758A",
"oX c #8B8B8A",
"OX c #868685",
"+X c #949493",
"@X c #9D9D9C",
"#X c #908F8D",
"$X c #A6A6A6",
"%X c #BABAB9",
"&X c #B1A387",
"*X c #DC8E89",
"=X c #E6888C",
"-X c #CFB38C",
";X c #ED8BAA",
":X c #EC86A5",
">X c #E997AC",
",X c #ED99B2",
"<X c #F19FBA",
"1X c #ECA6B6",
"2X c #D9B59B",
"3X c #DAC790",
"4X c #ECC583",
"5X c #EECA89",
"6X c #F2CB8A",
"7X c #F5D38E",
"8X c #F5D492",
"9X c #FBDD9B",
"0X c #F8D896",
"qX c #E1CA9E",
"wX c #FDE19F",
"eX c #D7C4B6",
"rX c #E6D2A5",
"tX c #E3CDA0",
"yX c #FEE2A1",
"uX c #F2AEC3",
"iX c #F4B8CB",
"pX c #F3BFCB",
"aX c #C4C4C4",
"sX c #CBCBCB",
"dX c #D9D9D9",
"fX c #F1C5C8",
"gX c #E8D9CC",
"hX c #F7C9D7",
"jX c #EADDD1",
"kX c #F6D7DB",
"lX c #EDC4C8",
"zX c #EDE4D8",
"xX c #F9DDE5",
"cX c #ECECEC",
"vX c #E6E6E6",
"bX c #F7E9E8",
"nX c #F6F2ED",
"mX c #FFFEFE",
"MX c #F8F4F4",
"NX c #FCEBF1",
/* pixels */
"                                                                                                                                ",
"                                                    =.=.=.                                                                      ",
"                                      m.m.m.m.,.*.=.=.=.0.9.=.=.                                                                ",
"                                    m.m.j.m.,.=.&.$.=.E.2X6.&.=.=.                                                              ",
"                                  m.m.m.m.k.=.-.8.9.K.rX2X9.-.=.=.          8X6X|.4X6X5X  0X                                    ",
"                                m.j.j.j.m.,.=.J.2XqXrXrXrXtX-X8.=._ w.W.7X4X4X6X8X8X7X4X|.4X8X                                  ",
"                              m.m.m.k.k.k.;.&.=.6.E.rXE.9.9.8.-.#.G.0X4X4X0X8X4X|.4X7X0X0X6X/.8Xu.' ' '       _._.T.            ",
"                              k.>.;.;.;.;.=.=.&.$.9.qX8.$.#.$.) -.4X/.6X0X/.^./.|./.^.^.0XwX8X/.(._ ( ( :.S.)._._.F.+.S.)._.    ",
"                              ;.&.=.&.=.J.-.=.=.#.-.K.#.) _ ~ Q _ u.u.I.P.^.0X0X7X0XwX4X^.0XyX8X4X0.g <.R._._.]._.S.S.).).).    ",
"                            =.&.$.$.=.J.3X6.=.=.$.W ) Q Y Y Q W :.y.a.I.a.(.6X^.^.Q.4XwX/./.yXwX4XE.<.).'.].'.].).R._.'._.`.    ",
"                            &.=.6.9.E.tXqXJ.:.` ` ) Q Q W ~ T [ 1.r.(.W.a.y.u./.7X7XQ.0X0X^.0XyX5X[._._.].}._.T.T.)._.}.].D.    ",
"                          =.&.-.J.E.-XrXtXE.u.E.-.$.~ i ~ o. ./ / 2.U.6X0XP.I.1.u.8X^.0X8X^.0XwX X'.'._.'._.T.T.)._._._._.,.    ",
"                          d #.$.&.$.8.qXu.` -.6.#._  .{ } } o.[ [ } X.2.I./.0XP.y.y.~.yX4X/.yX X'. X'._.}.].T.T._.}.].).R.a     ",
"                        Y y u s d d ;.!._ W s u t ! X.o.} Q { o.o. .@.p.W.W.(.7X/.W.a.6XQ.8X7X'.).'._._._.T.T._._.].'._.A.O     ",
"                        R y t t t u v 7.W W y y u u ^ { } { o.o.o.r.g.w.i.2.3./.0X7XW.y.^.0X].).)._.}.'.T.T._.].]._.].).v @     ",
"                      ' ` d v v s u u s /  .{ / / / ^ ..[ { } 2.p.f.i.O.[ X.O.s.Q.^.^.I.W. X{.[.]._.}.).T.)._.}.]._.}.Y.> o     ",
"                      d.2XeXeXeX2XK.v u ~ } o.Q { o.o.X.o.r.1.w.f.i.o.o.} { p.W.0XyX9X!.A.M.M.Z.].'.).T.)._._._.).).).n @ o     ",
"                    gXbXNXNXnXbXzXjXeX7.u ~ ..X.X.o.X.X.O.p.W.t.@.{ o.o.o.1.f.p.0X3XL.b.x.x.b.Y.].{.D.D.Y.{._.).'.].D.> @ @     ",
"                  jXnXmXmXmXmXmXmXbXjXeX5.#.%.^ ..o.X.X.r.W.W.2.| ] } O.O.t.2.3.L.V.V.x.x.v.M.Z.A.M.b.b.b.Z._.)._.R.a @ o o     ",
"                gXbXmXmXmXmXmXmXmXmXzXjXK.$.$.&.%.^ } O.p.p.2.o.X.[ [ i.a.p...>.b.N.V.b.v.l.n.N.N.x.b.x.M.{._._.T.;.- O o o     ",
"              gXzXMXmXmXmXmXmXmXbXpX,X,X>Xq.=.$.$.&.%.u.f.O.X.o.o.2.w.f.f.y.n V.b.b.N.x.v.x.b.V.N.b.v.x.Y.Y.Z.A.M.n l.b - o     ",
"              gXbXmXmXmXmXmXmXhX;X:X;X;X:X:X.Xw.+.` =.#.%.O.O.O.2.I.g.@.O.,.b.V.b.x.l.x.N.n.b.V.b.v.l.n.M.b.n.N.b.b.x.c O o     ",
"              jXnXmXmXmXmXNXfX,X1XhXbXbXxXpX,X.X4.) d u u :.I.a.I.W.i.| 3.n.b.N.N.l.x.b.V.b.x.v.l.v.b.b.x.x.V.n.n.z.h O @ o     ",
"            *XgXxXkXhXkXjXjXgXgXgXzXzXnXmXmXNXpX.X) u u u $.p.2.2.2.O.{ >.x.x.x.l.v.x.b.V.x.l.z.x.x.V.b.x.x.V.N.b > o @ @ o     ",
"            4.,X;X:X;X,X,X1XlXbXbXbXzXjXzXMXmXmXiXd.W W =...o.X.X.X.X.^ k.x.x.z.l.x.b.L.C.l.v.x.x.b.V.b.x.x.n.c O o o o @ O     ",
"          +.h.:X;XuXbXNXbXuX;XuXNXmXmXnXjXzXmXmXxX:Xt.t.=Xf.i.O.o.{ Q m b b l h j j C.-XZ h l l l b b b.x.n ) & @ o o o o 0     ",
"          e.:X;XpXmXmXmXmXmXhX;XpXmXmXmXNXzXbXbXuX:X;XuXpXuX;Xg.@.i k k k x j 6 k 6 Z 2XH.6 , 6 6 k h z.v ~ I o O o o o : z     ",
"        @..X;XpXmXmXmXmXmXmXmXhX;XbXmXmXmXnXgX,X;XhXNXmXmXmXbX<Xd.7 ; = = = = - - = 7.G.x - * * * * > d ( T w @ O o o o 0 5     ",
"        e.;X<XMXmXmXmXmXmXmXmXNX;XhXmXmXmXmXzXlXxXmXmXmXmXmXmXNX,XV * * * * * * * , 7.Z x , = ; , , < g Y Y % o o o O $ p +     ",
"      ' e.h.=XpXfXhXkXkXbXbXNXbX,XiXmXmXmXmXzXzXmXmXmXmXmXmXmXmXhXq.= 6 6 k x 6 6 k n K.&Xx k k k j 6 g T r o O o o o 0 0 @     ",
"    Y R R T T +.+.+.@.@.@.@.w.e.4.e.d.d.=X=X*X*X1XlXfXfXkXkXbXbXhXXX6 k 6 6 6 ; ; 6 x -X&X6 = = = = = r R & @ o o o + M $ o     ",
"    % % & & q q w w e e r r P P I U U U E R R T T +.+.+.@.@.@.@.4.@.I P P r y y y t s 0.E.5.< < > > > Y P o o o @ @ 5 0 @ o     ",
"    O @ @ @ O @ @ @ @ @ @ O O o o % % % % % & & q q w w e e r r P P I U Y Y Y R R T T ' ' T R R Y Y Y ' 5.4 @ o @ O 9 : o o     ",
"    o o o o O O o o o O O O O o o o o @ o o O @ @ @ @ @ @ @ @ o o o o o % % % % & & q q w w e r r r P ( H C 2 @ @ 2 9 o o o     ",
"    @ @ o O o O o o @ o o o O O o O o o o o o o o O O o @ o @ @ @ o o o o @ @ @ @ @ @ @ @ @ @ @ @ o o 2 F J C 1 o 9 1 o o O     ",
"    o o o O o o o o o o o o o O o o o o o o O o o o O O o o @ @ o o o o @ A C @ o o @ o o o O o o o o 1 S J K B 7 p o o o o     ",
"    o @ @ o o o o o o o o o @ o o o o o o o o o @ @ @ o o o O o o @ o o o A V . o @ o o o o O o o o o 1 A J J J K 0 @ o o @     ",
"    o @ @ o o o @ @ o o o O @ @ O o @ @ o o @ @ 0 @XJ @ @ o O o @ @ o o o @ O 9 + 1 O o o o o + + o o : A J J L #XA 1 @ o o     ",
"    o o o o o o @ @ o o o o @ o o @ N OX1 @ @ # K mXdXK +X4 @ o o o o o o @ OXcXoXaXL O o o O +X$X1 @ 1 S J J OXOXK B 1 @ O     ",
"    o o o o o o o @ o o o o o o o @ N K : @ $ D +XcXcXmXvX0 @ o O o o o o O @XmXdXMXaX+ o o o OX+X+ @ : A D K #XK J J C 4       ",
"    o o o o o o o @ o o @ @ o o o o @ @ O @ B mXMX%X@XdXA o o o o o @ @ + oXsXsXoXsXoXO o o @ O o @ @ : A G H.OXJ K K K F       ",
"    o o o o @ @ o o o @ @ @ o o o o o O O o 7 +XdXsXaXmX@X+ @ M N @ @ o $ %XMXdXaXcXcXB @ O o o o @ @ 1 S K oXK K K K K         ",
"    o o o o @ @ o o o @ o o o o o o o o o o @ . @XmX%X$XL O @ 3 4 o o O o 4 N sXcXL $X0 @ o o o o o @ 1 S L OXG J J K K         ",
"    O o o o o @ @ @ @ @ @ O o o o o o @ @ @ o @ N 7.0 o O o o @ @ o o o o @ o L oX+ o @ o o @ @ O O @ : S oXL G G G J K         ",
"    0 M p 9 9 0 7 7 0 5 5 4 2 1 1 : $ + O + O O @ . @ o o o o @ @ @ @ @ @ o @ @ @ @ o o @ o @ o o o @ : K #XJ J G D D           ",
"    + : 1 1 2 3 4 4 7 0 9 9 9 9 p z M M p M z z 9 9 9 0 0 0 0 7 5 4 2 2 2 1 $ + + + O O o o @ @ @ @ @ : K L G J G G J           ",
"    @ @ @ @ @ @ @ @ @ o o o o o o o O + + + + : 1 1 1 2 4 4 4 0 0 0 9 9 M z M z z M M z p 9 p 9 9 0 0 3 A K J G D D             ",
"    o o o o @ @ o o o o o o o o @ @ o o o @ @ @ @ @ @ @ @ + $ @ @ @ @ o o o O O O + + $ : : 1 2 3 5 4 2 A G K J D D             ",
"    o o o o o o @ o o o o o o o o o o o O o 9 7 @ o o o O +X$X+ + o o o o o o o o o o o o o @ @ @ @ @ : S K K K J               ",
"    @ o o O O o @ o o o o o o o o o o o O @ OXD @ o @ o 0 dXcXoX%Xz @ o o o o @ @ o o o o o o o o o o 1 F J J J J               ",
"    @ o o o o o @ o o o o o o O o o o o o o : $ o o @ B dXdX+XaXMXB . o o o @ 3 N 2 @ o o o o o o o o : S J J G K               ",
"    o @ o o @ @ @ o o o o o o o o o o o o o o o o o @ N aXMX%XdX%X1 @ o o @ @ @XmXoX. @ @ o o o o o o 1 S J J J                 ",
"    O o @ o @ o @ o o o o o o o o o o o o @ o o o o o @ 7 dXsXdXsX1 @ @ @ 3 M aXmX%XoXz @ o o o o o @ 1 A K G D                 ",
"    o o @ o o o o @ o o o o o o o o o o @ o o @ o @ @ @ + S 0 9 p @ @ o @ +XMXdXdXvXcXN . o o o o o o : A J D                   ",
"    o o o o o o o o o o o o o o @ o @ @ o o o o o o o @ o @ @ @ @ o o o @ N aXdX+X%X@X+ @ o o o o o o 1 A J K                   ",
"    o o o o o o o @ o o o o o o o o @ @ o o o o o o o @ @ o o o o O o o o . oXmX%XcXsX1 @ @ @ o o @ @ : A K K                   ",
"    o o o o o O o o o @ o o o O o o o @ o o o o o o o o o o @ @ o O o o o @ N %XV C A + o $ 1 o @ @ o : A K                     ",
"    O o o o O o @ o o @ @ o o o o o o o o o O o o O @ @ @ + B 2 o o o o o o @ O @ @ @ o @ B +X+ o o o : A K                     ",
"    o o o o o o o o o @ @ @ o o o O o o o O O o o o @ @ o + A 4 @ o o o o o o @ @ o o o o $ 4 o o o @ : A                       ",
"                    o o o o o o o o o o O o o O o o @ @ o o @ o o o o o o o @ o @ o o o o o @ o o o @ : A                       ",
"                                                          o O O o o o @ @ o o o o o o O O O o O o o o :                         ",
"                                                                                                    o +                         ",
"                                                                                                                                ",
"                                                                                                                                "
};
