/* XPM */
static char *grass[] = {
/* columns rows colors chars-per-pixel */
"64 48 239 2 ",
"   c #1E5F09",
".  c #286C15",
"X  c #297216",
"o  c #2D7A12",
"O  c #2D741B",
"+  c #2F7A1A",
"@  c #277213",
"#  c #327D15",
"$  c #337C1D",
"%  c #32761F",
"&  c #256F09",
"*  c #327623",
"=  c #357C23",
"-  c #3B7D2C",
";  c #377A26",
":  c #2E7320",
">  c #467E26",
",  c #39880F",
"<  c #348215",
"1  c #35831B",
"2  c #3A861D",
"3  c #3C8A1C",
"4  c #388A18",
"5  c #3F931A",
"6  c #368225",
"7  c #3B8523",
"8  c #3D8B23",
"9  c #3C842B",
"0  c #3D8A2A",
"q  c #3F9025",
"w  c #3D8631",
"e  c #3F8932",
"r  c #428C1D",
"t  c #41931D",
"y  c #499A1D",
"u  c #439A19",
"i  c #4EA11D",
"p  c #53A51C",
"a  c #428D25",
"s  c #41872C",
"d  c #438D2B",
"f  c #4A8D2E",
"g  c #458825",
"h  c #449324",
"j  c #499524",
"k  c #469822",
"l  c #4B9B25",
"z  c #45932B",
"x  c #4A952C",
"c  c #4C9B2C",
"v  c #479929",
"b  c #519C2D",
"n  c #519928",
"m  c #438535",
"M  c #438C33",
"N  c #4A8B34",
"B  c #468E3A",
"V  c #4B8D3B",
"C  c #4D8535",
"Z  c #469133",
"A  c #4B9433",
"S  c #4D9A33",
"D  c #4C933B",
"F  c #4E9A3B",
"G  c #469337",
"H  c #529534",
"J  c #529C34",
"K  c #51953B",
"L  c #529C3B",
"P  c #5A9D3C",
"I  c #589F36",
"U  c #528E2D",
"Y  c #609A3F",
"T  c #4EA22A",
"R  c #4CA022",
"E  c #52A425",
"W  c #54A42C",
"Q  c #59A62D",
"!  c #55AA2D",
"~  c #5AAB2C",
"^  c #56AA24",
"/  c #5BB128",
"(  c #54A234",
")  c #5AA535",
"_  c #5BAA34",
"`  c #55A23B",
"'  c #5BA43C",
"]  c #5DAA3C",
"[  c #56AA37",
"{  c #5EB338",
"}  c #4EA033",
"|  c #63B52B",
" . c #61AD32",
".. c #62A73B",
"X. c #62AC3C",
"o. c #6AAF3D",
"O. c #64B434",
"+. c #64B13D",
"@. c #6AB43D",
"#. c #6BBA3D",
"$. c #64B93A",
"%. c #70B93E",
"&. c #74C23A",
"*. c #4D9443",
"=. c #4E9940",
"-. c #549344",
";. c #549D43",
":. c #5B9D44",
">. c #5D9C4A",
",. c #559949",
"<. c #59954F",
"1. c #679C4C",
"2. c #729542",
"3. c #629C53",
"4. c #55A243",
"5. c #5BA444",
"6. c #5DAA43",
"7. c #5CA44A",
"8. c #5EAA4B",
"9. c #55A840",
"0. c #5FB047",
"q. c #5DA752",
"w. c #62A543",
"e. c #63AC43",
"r. c #6AAE45",
"t. c #61A64C",
"y. c #63AC4B",
"u. c #6AAD4C",
"i. c #6BA445",
"p. c #64B244",
"a. c #6BB444",
"s. c #6CB944",
"d. c #66B24B",
"f. c #6BB44C",
"g. c #6DB94C",
"h. c #70B64B",
"j. c #72BB4C",
"k. c #73B948",
"l. c #62A752",
"z. c #6AA254",
"x. c #64AC53",
"c. c #6BAD53",
"v. c #6AAF5A",
"b. c #67A95C",
"n. c #71AD53",
"m. c #74AD5B",
"M. c #66B154",
"N. c #6CB454",
"B. c #6DB953",
"V. c #6DB35B",
"C. c #6EB85C",
"Z. c #71B553",
"A. c #73BC53",
"S. c #7ABD55",
"D. c #73B45C",
"F. c #7AB45C",
"G. c #74BC5B",
"H. c #79BD5C",
"J. c #71A847",
"K. c #74AC62",
"L. c #6AB264",
"P. c #7AB663",
"I. c #75BB62",
"U. c #7BBD64",
"Y. c #7CBC6B",
"T. c #77B668",
"R. c #6FAD6B",
"E. c #74C24C",
"W. c #7AC24F",
"Q. c #75C244",
"!. c #76C153",
"~. c #7BC254",
"^. c #76C05C",
"/. c #7CC35C",
"(. c #7EC95A",
"). c #7CC263",
"_. c #7DC26B",
"`. c #7EC963",
"'. c #7DC370",
"]. c #83B850",
"[. c #88AC64",
"{. c #83BA68",
"}. c #83BD74",
"|. c #82C55C",
" X c #84CA5B",
".X c #89CC5B",
"XX c #82C854",
"oX c #91D35E",
"OX c #8ED25F",
"+X c #82C563",
"@X c #84CA64",
"#X c #8BCD65",
"$X c #82C56B",
"%X c #84C96A",
"&X c #8BCD6B",
"*X c #8AC76C",
"=X c #8ED162",
"-X c #8DD26D",
";X c #92D564",
":X c #93D36C",
">X c #9ADC6C",
",X c #97D769",
"<X c #84C573",
"1X c #8ACB74",
"2X c #8AC47A",
"3X c #88C877",
"4X c #91CC74",
"5X c #91CB7A",
"6X c #8DD176",
"7X c #92D275",
"8X c #9DDC73",
"9X c #93D27D",
"0X c #9ADA7C",
"qX c #99D775",
"wX c #A1DE7B",
"eX c #9EE07B",
"rX c #A1E174",
"tX c #A3E27C",
"yX c #ACE97A",
"uX c #8DC680",
"iX c #97D484",
"pX c #93D18B",
"aX c #A5DE85",
"sX c #A5E483",
"dX c #AAE685",
"fX c #ADEA85",
"gX c #ABEA8A",
"hX c #A7E48B",
"jX c #B2ED8C",
"kX c #B2EC85",
"lX c #B5F184",
"zX c #B5F08B",
"xX c #ACE993",
"cX c #B2ED93",
"vX c #B6EB96",
"bX c #B6F194",
"nX c #BBF39A",
"mX c #B8F393",
"MX c #C0F69B",
/* pixels */
"hXhXgXxXgXgXnXcXcXcXbXnXzXbXnXbXzXmXnXnXMXjXlXlXzXzXmXlXjXlXlXzXyXyXkXzXjXgXyXjXkXsXkXjXdXsXdXdXhXtX8X8X>X;XoX=X#X#X.X X|.~.S.S.",
"xXxXgXgXtXhXgXbXbXcXbXbXxXbXgXcXgXcXgXcXvXjXbXnXsXsXsXsXcXsXtXtXtXtXwXtXtX8X>XrXrXrXrXrXrXtXrX8X>X>X;X;X;X=X=X=XoX.X X XXXj.~.~.",
"xXhXhXhXhXdXhXhXhXtXtXhXsXgXsXdXhXdXsXhXdXdXdXhX8X8X,X8XaX8XqX,X,X,X;X=X=X.X.X X X=X=X.X.X X.X X X XXXW.W.~.W.W.W.~.h.k.h.a.a.a.",
"eXeXhXeX8X0X0X-XiXwX0XhXwX8X8XtXhXwX8X-X,X,X#X&X1X&X#X&X,X#X.X X|.~.~.~.W.h.~.h.h.h.h.h.h.S.S.S.S.A.Z.A.h.a.a.X.X.e.......i.i.H ",
"vXtXwX8X;X,X.X.XoX,X,X,X0X-X,X&X@X&X4X&X&X+X|.+X/././.|.|././.~.~.h.h.k.s.h.a.h.a.h.A.a.+.@.@.X.X.X.e.u.r.u.u.i.' L P i.P H f > ",
"xXaXiXaX8X,X,XqX,X,X#X&XqX,X&X*X5X&X4X#X X|.+XS.h.|.h.S.h.~.S.a.h.h.a.a.a.a.+.a.a.X.X.r.X.X.X._ ..) ) ) ) ) ) b x x b x a a g 7 ",
"0X-X&X&X1X9X9X9XqX-XqX&X&X#X#X&X#X|.+X+X|.+X|./.A.~.h.A.a.a.a.a.a.o.a.+.a.a.a.X._ X.e.e.u.i.' L ) ' I L v L v x H x x x d g g ; ",
"U.a.h.D.%X&X@X`./.&X&X X X@X X XXX+X|./././.h.h.~.s.@.A.A.a.A.a.r.a.a.a.a.a.a.e.e.u.u.e.' ' ' L b L 5.L L L L L A A x H A a a g ",
"n.S.%X&X).'.Z.B.A.A.A.g.!.~.A.h.h.+X+X|.~.s.a.A.h.s.S.~.a.Z.h.Z.Z.a.y.] e.e.] X.X.e.X.i.) ) e.] ) ' ' L L L L A z A A d d d a a ",
"{.U._.'.Y.Y.<X_.A.S.B.B.T.S.A.T.A.a.&XiXa.A.).^.S.~.|.k.S.Z.e.!.U.u.a.' L ' ) Q e.u.] 6.) ' e.e.' ) ) ) ) ` ) L S S a 8 d 2 7 a ",
").U.U.%X<X%X1X<X_.).S.A./.S.S.).)./.&.h.B.).3X%X).S.Y.A./.a.1X1XB.B.a.D.e.B.i.) 5.' X.' ' ] ' e.e.] ` ) ' ' ) ) L x x v x a 8 d ",
"S.).%X/.h.T.V.U._.U.S.S.B./.<X&X).W.~.~.+Xh.s.B.B.A.).S.T.S.%XS.a.D.Z.Z.A.D.n.a.S.B.a.y.' ' ' L b v W ' ) v l v z A L L S L F x ",
"S.).%X/.S.Y.uX1X<XS.1X_./.9X+X&XS.S./.|.S.~.!.).A.h.).+X).<XS.B.D.D.U.h.S.Z.D.S.a.a.T.U.B.B.B.d.' _ e.e.6.5.S ) j x h x A A M Z ",
"D.S.S.).S.<X1X_.<X1X-X&X(.!.+X/.&X5X(.~././.E.!.A.s.g.A.A.S.a.' l.m.c.a.B.B.a.a.u.e.a.X.B.a.a.a.u.) ) Q _ 5.5.Q ) ) ) L z x L A ",
"5X1X3X+X1X|.&X6X-X+X-X X`./.+XE.~.S.g.a.s.h.g.a.a.S.g.h.B.d.e.a.B.d.B.a.a.e. .X.M.a.h.a.6.e.] ] e.6.' e.e.6.' W l ) W W L v x A ",
"iXpX5X&X3X&X+Xg.A.S.Z.S.).&X/.A.~.iXB.U.S.A.).S.h.S.T.A.A.u.v.a.h.S.S.+Xa.L g.B.a.a.a.a.6.] ' y.e.d.6.) _ ] ] y.b ) l l L L S L ",
"iX9X+X3X<X).y.e.B.a.O.y.T.S.)./.Q.1X{.{.A.g.S.S.h.h.a.a.D.n.D.U.h.%Xa.a.u.c.+XS.a.d.E W 6.y.e.B.d.a.] ) 6.y.5.' _ 6.v v x h v z ",
"_.).@X!.).U.D.S.).S.s.B.'._.).S.A.A.Z.S.S.U.U.U.Z.S.Y.D.2XuX2XD.i.d.F.y.5.{.F.V.a.' S ` ` x.B.d.] L 4.7.6.5.8.6.b ' ' S L v L F ",
").U./.&.h.pX/.6X6X%X).<X&X@X!.A.A.A.U.P.U.T._.B.Z.}.Y.}.2XT.U.7.u.F.V.c.K.S.V.B.D.x.t.x.y.D.T.V.V.V.v.8.q.L x.t.U.pX2Xv S h z x ",
"S.g.h.~./.a.E.!.^./.A.&.A.).A.a.h.h.A.).A.S.B.Z.K.b.}.K.T.-.K >.P.U.S.D.Z.S.x.c.B.y.c.B.c.{.T.V.V.L.x.x.v.l.x.F :.5.y.,.K h 8 8 ",
"h.g.s.a.U.g.s.s.B.S.d.e.X.S./.).U.h.~.k.h.Z.Z.S.J.T.Y.z.K.1.-.K.F.Z.A.y.y.x.x.l.y.c.B.V.B.t.) ' 7.7.;.;.q.7.v.4.5.A V ;.7.K :.>.",
"%.h.a.) ' a.a.a.A.a.B.e.y.K.S.A.S.S.).S.U.U.n.].[.m.S.2X{.[.{.2XP.Z.Z.u.c.c.t.x.c.D.x.v.x.8.:.7.7.5.>.4.;.4.q.A L x.z.;.;.;.7.-.",
"a.@.a.S.U.S.a.T.a.|  .g.^._.g.a.s.g.a.E.Q.S.{.F.c.Y.%XP.2X}.3X2X}.}.P.A.B._.D.D.a.S.y.c.t.8.y.V.7.` L A L ` ] 7.L Y.M F A ;.;.4.",
"a.S.h.h.g.h.B.V.a.s.+.$.g.).A.S.a._ a.^ ~ ).^.#.h.a.a.Z.P.a.S.D.D.T.U.B.B.y.a.d.a.d.c.x.7.x.t.t.7.S F M A 7.x.l.c.V ; 8 A F h z ",
") a.A.a.+.g.d.].F.+.O./ +.| O.h.S.#.h.e.g.`.!.a.) ).@XX.Z.S.S.e.a.B.a.) 5.) l u ) 7.5.D.t.y.y.y.x.` 7.A z.K.7.7.x.L L F A ;.0 M ",
"c.y.g.h.| ~ ] X.u.e.a.] ] a.a.a.!.E.~./.~.E.~.S.h.6X/.l a.).A.i.D.g.X.) v K x h L L 6.L H :.S 6.8.5.6.;.b.T.b :.4.` S ;.4.;.Z Z ",
"D.V.y._ ) ' B.6.B.e.a.e. .B.U.a.a.).B.#.#.#.h.g.h.s.' ' a.d.e.c.S.B._ z a :.3.L A L K K x c.6.8.5.' ' t.4.L ) H y.7.F T.L.R.A z ",
"..i.a.e.L y.B.g.a.a.g.S.X.T.Y.).a.a.+.+..._ | @.) e.e.e.g.a.a.a.].j.h f 1.c.z.' L A >.3.;.y.` y.7.y.5.y.x.5.` h L 7.` q.F =.0 F ",
"h.u.a.B.B.B.+.O. .B.e.X.A.a.e.a.a.L e.y.e.X.| A.A.y.B.D.) _ ] d.X.' u.>.D.D.T.] A K L H 7.a h d.7.x.x.t.7.q.L L K 4 4 B 0 M 9 4 ",
"X.a.X.+.d.X.X.u.e.e.X.' a.a.~ ] z A X.) y.S.A.'.).e.u.S.B.] a.) L L g.).<XS._.x.>.t.5.' x.:.v d.5.L B.B.L ;.F L Y a 9 % $ d Z A ",
"r. .X.d.e.e.a.d.:.a.a.X.d._ ) x.P ' a._ a.a.a.D.6.a.T.B.d.S.B.] e.e._ a.y.d.e.' V.B.` 8.y.:.5.M.4.W y.8.>.;.A A h l A N 2.2.7 0 ",
"v ) ' 6.e.P.T.] a.a._ y.g.~  .V.u.P l.B.a.a.p.! v d.8.6.B._ d.M.l T a.y.5.e.' B.S.D.i.) M.P e.6.7.` v ) L K L x a k d K H V 9 0 ",
"L S L ' T a.{.' W y _ d.y.) W ) +.) ' d.X._ / W v L x.` L j v d.l 4 E _ 6.5.L d.B.) x W e.` y.5.x.` 5 h h L L A x 4 M 8 0 ; 9 ; ",
") x h K v L i.y.) a B.X.) 6.y.' W +.X.) ' a i i E ~ ) t M.L.f _ x ' E W L ) ) ' W l v ) ) x.7.6.8.;.) L A S Z A S ;.*.Z d 7 ; ; ",
"L F L 5.' v ) 6.5.` 6.a.] a.' b  ._ L 6.] l l W _ Q ~ +.'.I.W ! p ^ W ` L L v z S v a y.[ A z x c.>.` d 4.L A L 4.7.;.L M ,.M ; ",
"v L L ' ` S 4 ` y.) ) y.e.W ) ] X.' 5.5.+._ W a.b 6.] C.] _ ^ ) / u +.e.` ` h ) h z 5.z.6.A v ` L.7.L x F A A 8.8.=.*.z Z B 7 ; ",
"x v b W L ) L t.x.) ) 6.' Q _ 6.L L C.d.S._ ) y.6.e.) 6.W ~ { d./.a.W ^.L y.4.) z d ` e.e.S v l ` 4.L ` M Z A 4.F d e 1 1 d 7 M ",
"d L v v S ] ,.4.q.b.7.` ` W j W ) ) B.X.g.] ) +.X.] M.) ] ] 0.d.d.] ) a._.8.` 8.9.v x.] } S L h h S 4 v Z =.F z 8 0 ; # # o 7 $ ",
"A L z 4 x R x ' 5.<.B F a h ' 5.` ] 6.' d.M.` ! +.e.7.6.) a.{ a.) T +.a.B.a.) 8.` L e.] z A 8 M Z S z h ;.,.z 4 M 0 $ 7 e 7 + + ",
"A L ;.Z _ l v h t *.A Z 8 8 ` A R T v ` V.M.d.v _ +.a.a.] ` k R L ) T ] { _ v ` ` F k v ) 8 0 7 8 B q 4 8 M A 7 < 4 e o ; 9 1 $ ",
"z A F ;.L v d k 1 7 S A F 8 d h v l y L ` B.d.y.0.E.) 6.a.y.F 4 8 6.0._ $.! t 1 z 8 z v v 2 M m A F z 7 m F Z M 8 < M 9 + ; 8 ; ",
"4 w 8 d L x d o $ z S ` N -.d d A S h ;.5.V.y.L ] _ ) ] x.V A S F h v T ! / T 7 d ) h t x 7.9 - V v ) S N ;.=.0 M 8 M 7 7 7 9 ; ",
"$ h 1 8 x r S + 2 9 h ! L 1.U 6.5.A z y.L 4.` 8 x v ) y A -.L L L z W k E ^ y > U x a r ` L d V L 7.S 4 4 F A 8 B *.;.0 6 0 X   ",
"@ 0 8 9 0 7 h t 4 9 0 v v 6.L e.v.x L 8.x v S t a ' x A d z 5.A A 4.v S p y , 2 7.d g A A z d A L z q M 0 8 8 z z 9 Z $ 7 w ; . ",
"& 7 Z M A d F h L A K h S h l ] ` ) l S S b 5.v v ) 7 $ a d d 9 F 6.z h v h # 1 ; A *.K ` a K A A A q 0 8 z 9 + 7 e ; 9 X + * ; ",
"% 1 7 + M w B =.,.a -.S A M y v a x v K L b ` a v A g x A N B M S l # a 4.0 9 ; X % g K A L d A ;.d 8 X 1 < 7 @ 0 - ; 1 X + ; > ",
"7 7 o X % 7 8 Z z M ;.L A -., , $ $ 7 V a L x 4 L H r L C > A V z k < L S 7 A A 7 m *.m d a Z 8 z A 9 - - 7 + + $ ; - + + @ * ; ",
"$ 2 $ ; B 0 h 7 1 9 d d 7 $ r # 2 m ; g N 5.r A A j v L A N g V j x x 5.L x S 7.d A x A M $ d 9 A x $ ; - ; * * 9 * $ e ; X X : "
};
