/* XPM */
static char *wall[] = {
/* columns rows colors chars-per-pixel */
"64 64 179 2 ",
"   c None",
".  c #73553F",
"X  c #745741",
"o  c #755741",
"O  c #765741",
"+  c #775841",
"@  c #755842",
"#  c #765842",
"$  c #775842",
"%  c #765943",
"&  c #775943",
"*  c #775A43",
"=  c #795942",
"-  c #785943",
";  c #795943",
":  c #785A43",
">  c #795A43",
",  c #7A5A43",
"<  c #7A5B43",
"1  c #7B5B43",
"2  c #785B44",
"3  c #795B45",
"4  c #7A5A44",
"5  c #7A5B44",
"6  c #7B5B44",
"7  c #7A5B45",
"8  c #7B5B45",
"9  c #7C5B44",
"0  c #7A5C45",
"q  c #7B5C45",
"w  c #7A5C46",
"e  c #7B5D46",
"r  c #7C5C44",
"t  c #7C5C45",
"y  c #7C5D45",
"u  c #7D5D45",
"i  c #7C5C46",
"p  c #7C5D46",
"a  c #7D5D46",
"s  c #7C5D47",
"d  c #7D5D47",
"f  c #7E5D46",
"g  c #7D5E46",
"h  c #7C5E47",
"j  c #7D5E47",
"k  c #7E5E46",
"l  c #7E5E47",
"z  c #7F5E47",
"x  c #7E5F47",
"c  c #7F5F47",
"v  c #7E5F48",
"b  c #7F5F48",
"n  c #7F6048",
"m  c #7F6049",
"M  c #805F48",
"N  c #806048",
"B  c #806049",
"V  c #816049",
"C  c #806149",
"Z  c #816149",
"A  c #826149",
"S  c #81614A",
"D  c #82614A",
"F  c #81624A",
"G  c #82624A",
"H  c #82624B",
"J  c #83624B",
"K  c #82634B",
"L  c #83634B",
"P  c #84634C",
"I  c #85644C",
"U  c #896C58",
"Y  c #896D5A",
"T  c #8A705E",
"R  c #8D725F",
"E  c #8D7361",
"W  c #8E7463",
"Q  c #8E7563",
"!  c #8F7564",
"~  c #907766",
"^  c #907969",
"/  c #917969",
"(  c #927968",
")  c #927969",
"_  c #937A69",
"`  c #917A6A",
"'  c #937B6A",
"]  c #947C6B",
"[  c #947D6D",
"{  c #957D6D",
"}  c #947E6F",
"|  c #957F71",
" . c #978070",
".. c #978171",
"X. c #978173",
"o. c #988171",
"O. c #988273",
"+. c #998273",
"@. c #998374",
"#. c #9A8374",
"$. c #998376",
"%. c #9A8475",
"&. c #9A8476",
"*. c #9B8476",
"=. c #9A8577",
"-. c #9B8577",
";. c #9B8678",
":. c #9C8779",
">. c #9C877A",
",. c #9D887A",
"<. c #9E887A",
"1. c #9E897B",
"2. c #9F897B",
"3. c #9F8B7E",
"4. c #9F8B7F",
"5. c #A08B7D",
"6. c #A08B7E",
"7. c #A08C80",
"8. c #A28D80",
"9. c #A28E81",
"0. c #A38E82",
"q. c #A28F83",
"w. c #A39085",
"e. c #A49084",
"r. c #A79589",
"t. c #B5AAA6",
"y. c #B8ACA7",
"u. c #B5ACA9",
"i. c #B6ACA9",
"p. c #B6ADAA",
"a. c #B7ADAA",
"s. c #B7AEAA",
"d. c #B7AEAB",
"f. c #B9ADA9",
"g. c #B9AEAA",
"h. c #B8AEAB",
"j. c #B9AEAB",
"k. c #B8AFAC",
"l. c #B9AFAC",
"z. c #BAAFAC",
"x. c #BBB0AB",
"c. c #B9B0AC",
"v. c #B9B0AD",
"b. c #BAB0AC",
"n. c #BAB0AD",
"m. c #BBB0AD",
"M. c #BAB1AD",
"N. c #BBB1AD",
"B. c #BAB1AE",
"V. c #BBB1AE",
"C. c #BBB2AE",
"Z. c #BBB2AF",
"A. c #BCB1AE",
"S. c #BCB2AE",
"D. c #BCB2AF",
"F. c #BCB3AF",
"G. c #BDB3AF",
"H. c #BCB3B0",
"J. c #BDB3B0",
"K. c #BDB4B0",
"L. c #BDB4B1",
"P. c #BEB4B0",
"I. c #BEB4B1",
"U. c #BEB5B1",
"Y. c #BEB5B2",
"T. c #BFB5B2",
"R. c #BFB5B3",
"E. c #BFB6B2",
"W. c #BFB6B3",
"Q. c #C0B6B3",
"!. c #C0B7B3",
"~. c #C0B6B4",
"^. c #C0B7B4",
"/. c #C1B7B4",
"(. c #C1B7B5",
"). c #C1B8B4",
"_. c #C1B8B5",
"`. c #C2B8B5",
"'. c #C2B9B5",
/* pixels */
"                                                                                                                                ",
"                                                                                                                                ",
"      Q.Q.Y.Y.Q.Q.Q.'.'.Q.'.'.Q.Q.Q.Q.Q.Y.Q.Q.Y.Y.Q.Q.Y.D.Y.Y.Q.Y.Q.Y.Q.Y.Y.Q.Q.'.Q.Q.'.'.'.Y.Q.Y.Y.Y.Y.Q.'.Y.Q.Q.Q.Y.Y.D.      ",
"    Y.D.D.Y.Y.Y.Y.Y.Q.Q.Y.Y.Y.D.Y.Q.Q.Q.Y.Y.Y.Y.Y.Y.Y.D.D.D.Y.Y.Y.Y.D.D.Y.Y.Y.Q.'.Q.Y.Y.Y.Y.Y.Y.Y.D.D.Y.Y.Y.D.Y.Y.Y.Y.Y.Y.Y.    ",
"    Y.D.D.Y.Y.Y.Y.Y.Y.Q.Q.Q.Q.Q.Q.Y.Y.Y.Y.Y.Y.Y.Q.Q.Q.Y.D.D.Y.Y.Y.Y.j.D.Y.Y.D.'.Q.Y.Y.Y.Y.Y.Y.Y.Y.D.D.D.Y.Y.Y.Q.Q.Q.Y.Y.Y.Y.    ",
"    Y.Y.Y.D.Y.D.D.Y.Y.Y.Q.'.Q.Y.Y.Y.Y.Y.Q.Y.Y.Y.Y.Y.Y.Y.Y.Y.D.j.Y.Y.Y.D.Y.Y.Y.Y.Q.Y.Y.Y.Y.D.Q.Y.Y.D.D.D.Y.Y.Y.Y.Y.Y.Q.Q.Q.Y.    ",
"    Q.Y.Y.Y.Y.D.Y.Y.Q.'.Q.Q.Y.Y.D.Y.Y.Y.Q.Q.Y.D.Y.Y.D.D.Y.Y.D.Y.Y.Y.Y.Y.Y.Y.Y.Y.Y.Y.D.D.Y.Y.Y.Y.D.D.D.D.Y.Y.Y.Y.Y.Y.Y.D.Y.Q.    ",
"    Y.Y.Y.Y.Y.Y.Y.Y.Y.Q.Q.Y.Y.Y.D.D.Y.Y.Y.Y.Y.Y.Y.Y.D.Y.Y.Y.Y.Y.Y.Y.Y.Y.Y.Y.Y.Q.Y.D.D.Y.Y.D.Y.D.D.Y.Y.Y.Y.D.D.Y.Y.Y.Y.Y.Y.Q.    ",
"    Y.D.Y.Y.Y.Y.Y.Y.D.Y.Q.Q.Y.D.D.Y.Y.D.Y.Y.D.Y.Y.Y.Y.Y.Y.Y.Q.Y.Y.Y.Y.Y.Y.Y.Y.Y.Y.Y.Y.D.D.D.Y.Y.D.D.Y.Y.D.D.Y.Y.Y.Y.Y.Y.Y.Y.    ",
"    Y.D.Y.Y.Y.D.Y.Y.D.D.Y.Y.D.Y.Y.D.D.Y.Y.D.Y.Y.Y.Y.Y.Y.Y.Y.Y.Y.Y.Y.Y.Y.Y.D.D.D.Y.Y.Y.D.D.D.D.D.D.d.D.Y.Y.D.Y.Y.D.Y.Y.Y.Y.Y.    ",
"    Y.D.D.Y.Y.Y.Y.Y.Y.Y.Y.Y.Y.Y.D.D.D.D.D.D.Y.Y.Y.Y.Y.Y.Y.Y.Y.Y.Y.Y.Y.Y.D.D.D.D.D.D.D.Y.Y.Y.D.D.D.D.D.Y.Y.Y.Y.Y.Y.Y.Y.Y.Y.Y.    ",
"    Y.Y.D.D.Y.D.Y.Y.Y.Y.Y.D.Y.D.j.j.D.D.Y.Y.Y.Y.Y.Y.Y.Y.D.j.Y.Y.D.D.Y.Y.Y.Y.Y.D.j.d.Y.Y.Y.Y.D.D.D.Y.Y.Q.Y.Y.D.Y.Y.Y.Y.Y.Y.Y.    ",
"    Y.Y.Y.D.D.Y.Y.D.Y.Y.Q.D.D.Y.D.D.Y.Y.Y.Y.j.D.Y.Y.D.Y.D.D.Y.D.D.D.Y.Y.Y.Y.D.D.D.D.D.Y.Y.Y.D.D.D.Y.Y.Y.Y.Y.d.D.Y.Y.Y.Y.Y.Y.    ",
"    Y.D.D.Y.Y.Y.Y.D.D.Y.Y.Y.Y.Y.Y.Y.Y.Q.Q.Y.j.D.Y.Y.D.D.Y.Y.D.j.D.D.D.Y.Y.D.Y.Y.Y.Y.Y.Y.Y.Y.Y.D.D.D.D.D.Y.Y.Y.Y.Y.Y.Y.Y.D.D.    ",
"    D.D.Y.Y.Y.Q.Y.Y.D.Y.Y.Y.Y.Q.Q.Y.Y.Y.D.D.Y.D.D.D.j.Y.Y.D.D.D.Y.D.D.Y.Y.Y.Y.Y.D.D.Y.Y.Y.D.D.D.D.Y.Y.D.Y.D.Y.Y.Y.Y.Y.D.Y.D.    ",
"    D.D.Y.Y.Y.Q.Y.Y.Y.Y.Y.Y.Y.Y.Y.Y.Y.Y.D.Y.Y.Y.D.D.D.Y.Y.Y.D.Y.Y.Y.Y.Y.Y.Y.Y.Y.D.Y.Y.Y.Y.D.Y.Y.Y.Y.Y.Y.Y.D.Y.Y.Q.Y.Y.D.D.D.    ",
"    D.D.D.Y.D.Y.Y.Y.Y.Y.Y.Q.Y.Y.Q.Q.Y.Y.Y.Y.D.D.D.D.Y.Y.Y.Y.D.Y.Y.Y.Y.Y.Y.Y.D.Y.Y.Q.Y.Y.Y.D.D.Y.Y.D.Y.Y.Y.Y.Y.Y.Y.Y.Y.D.D.Y.    ",
"    Y.Y.D.D.j.Y.Y.Y.Y.Y.Y.Y.Q.'.Q.Y.Y.Y.D.D.Y.Y.Y.Y.Y.Y.Y.Y.D.D.Y.Y.Q.Y.Y.Y.Y.Y.Y.D.j.D.D.Y.D.D.Y.j.Y.Q.Y.Y.Y.Y.Y.Y.Y.Y.Y.Y.    ",
"    Y.D.D.Y.Y.Y.Y.Y.Y.Y.Y.Y.Q.Q.Y.Y.Y.Y.Y.Y.Y.Y.Y.Y.Y.Y.Y.Y.Y.Y.Y.D.Y.Y.Y.Y.Y.Y.Y.Y.D.D.Y.Y.Y.Y.D.j.D.Y.Y.Y.Y.D.Y.Y.Y.D.D.Y.    ",
"    Y.D.D.Y.Y.Y.Y.Y.Y.Y.Y.Y.Y.Y.Y.Y.Y.Y.Y.Y.Y.Y.Y.Y.D.D.Y.Y.Y.Q.Y.D.D.Y.Q.Y.Y.Y.Y.Y.Y.Y.Y.D.D.Y.D.D.Y.Y.Q.Y.Y.Y.Y.Y.Y.D.D.Y.    ",
"    Y.Y.Y.Y.Y.Y.Y.Y.Y.Y.Y.D.d.D.Y.Y.Y.Y.Y.Y.Y.Y.Y.D.D.Y.Y.Y.Y.Y.D.Y.Y.Y.Y.D.Y.Y.Y.Y.Y.Y.D.D.Y.Y.D.Y.Y.Y.Y.Y.Y.Y.Y.Y.Y.Y.Y.Q.    ",
"    Y.Y.Y.D.j.D.Y.Y.Y.Y.Y.D.j.D.Y.Y.Y.D.D.D.Y.Y.Y.D.d.D.Y.Y.D.D.D.D.Y.Y.Y.Y.Y.Y.Y.D.Y.Y.D.D.D.Y.Y.Y.Y.Y.D.D.Q.Y.Y.Y.Y.Y.Y.Q.    ",
"    D.Y.Y.D.D.Y.Y.Y.Y.Y.Y.Y.Y.Y.Y.Y.Y.Y.Y.D.Y.Y.Y.Y.j.D.Y.Y.Y.Y.D.D.Y.D.Y.Y.Y.D.D.Y.Y.Y.D.D.Y.Y.Y.Y.Y.Y.Y.Y.Y.Y.Y.Y.Y.Y.Y.Y.    ",
"    Y.Y.Y.d.D.Y.Y.Y.Y.Y.Y.Y.Y.Y.Y.Y.Y.Y.Y.Y.Y.Y.Q.Y.Y.Y.Y.Y.Y.Y.Y.D.Y.Y.Y.D.D.D.D.D.D.Y.D.D.Y.Y.Y.Y.Y.Y.Y.Y.Y.Y.Y.Y.Y.D.D.Y.    ",
"    Y.Y.Y.Y.Y.Y.Y.Y.Y.Y.Y.Y.Y.Y.Y.D.D.Y.Y.Y.Y.Y.Q.Y.Y.Y.D.Y.D.Y.Q.Y.Y.Y.Y.D.D.Y.Y.Y.D.Y.Y.D.D.Y.Y.D.Y.Y.Y.Y.Y.Y.Y.Y.Y.D.D.Y.    ",
"    Q.Y.Y.Y.Y.Y.Y.Y.Y.Y.Y.D.D.Y.Y.D.D.Y.Y.Y.Y.Y.Y.D.Y.Y.D.D.D.D.Q.Y.D.Y.Y.Y.Y.Y.D.Y.Y.Y.Y.D.D.D.D.Y.D.Y.Y.Y.Y.D.D.Y.Y.D.Y.Y.    ",
"    Q.Y.Y.Y.Y.Y.Y.Y.D.D.D.j.D.Y.Y.D.D.D.Q.Y.Y.Y.Y.Y.Y.Y.D.D.Y.Y.Q.Y.Y.Q.Y.Y.Y.D.D.D.Y.Y.Y.Y.Y.D.Y.Y.j.Y.Y.Y.Y.Y.D.Y.D.D.D.D.    ",
"    Y.D.j.D.Y.Y.Y.D.D.D.D.Y.Y.Y.Y.Y.D.D.Y.Y.Y.Y.Y.Q.Q.Q.Y.Y.Y.Y.Y.Q.Y.Q.Y.D.Y.Y.Y.Y.Y.Y.Y.Y.Y.Y.Y.Y.Y.Y.Y.Q.Y.D.Y.Y.j.Y.Y.D.    ",
"    Y.D.D.Y.D.D.Y.Y.Y.Y.Y.Y.Y.Y.D.D.D.D.D.Y.Y.Y.Y.Y.Q.Q.Y.Y.Y.Y.Y.Y.Y.Y.Y.Y.Y.Y.Y.Y.Y.Y.Y.Y.Y.Y.Y.Y.Y.Y.Y.Y.Y.Y.Y.D.D.D.Y.Y.    ",
"    Y.D.D.Y.j.D.D.D.Y.Y.D.Y.Y.Y.D.D.D.D.D.Y.Y.Y.Y.Y.Y.Y.D.D.Y.Y.Q.Q.Q.Q.Y.Q.Y.D.D.Y.Y.Y.Y.Q.Y.Q.Y.Y.Y.Y.Y.Y.Q.Y.j.D.Y.D.D.Y.    ",
"    D.Y.Y.D.D.D.D.D.Y.Y.Y.Y.Y.Y.Y.Y.Y.D.D.Y.Y.Y.Y.Y.D.Y.Y.D.Y.Q.Q.Y.Y.Y.Y.Y.Y.D.D.D.Y.Y.Y.Y.Y.Y.Y.Y.Y.Y.Y.Y.Y.Y.D.D.Y.D.D.Y.    ",
"    Y.Y.j.D.Y.Y.Y.Y.Y.Y.Y.Y.Y.Y.Y.Y.Y.D.D.D.D.D.Y.Y.Y.Y.Q.Y.Y.Y.Q.Q.Y.Q.Y.Y.Y.Y.D.D.Y.Y.Y.Q.Y.Y.Y.Y.D.Y.Y.Y.Y.Y.Y.D.D.Y.D.Y.    ",
"    Y.D.j.D.Y.Y.Y.Y.Y.Y.Y.D.D.Y.Y.Y.D.D.D.D.D.D.D.Y.Q.Y.Y.Y.Q.Q.Q.Q.Q.Q.Y.Y.Y.Y.Y.Y.Y.Y.Y.Q.Q.Q.Q.Y.Y.D.Y.Y.Y.Y.Y.d.j.Y.Y.Y.    ",
"    Y.Y.Y.D.D.Y.Y.Q.Y.Y.Y.Y.D.Y.Y.Y.Y.D.Y.Y.Y.Y.Y.Y.Y.Q.Q.Y.Y.Y.Q.Q.Q.Y.Y.Y.Y.Y.Q.Q.Y.Y.Y.Y.D.Q.Q.Y.Y.Y.Y.Y.Y.Y.D.D.j.Y.Y.Y.    ",
"    Y.Y.Y.Y.Y.Y.D.Y.Q.Y.Y.Y.Q.Q.Y.Y.D.Y.Y.Y.Y.Y.Y.Y.Y.Q.Y.Y.Y.Y.Q.Y.Y.Y.Y.D.D.Y.Y.Q.Q.Y.Y.Y.D.Q.Q.Y.Y.Y.Y.D.Y.D.D.Y.Y.Y.Y.Q.    ",
"    Y.Y.Y.Y.Q.Q.j.D.Y.Y.Q.Y.Y.Y.Y.D.j.D.D.D.D.D.Y.Y.Y.Y.Y.Y.j.D.Y.Y.D.Y.Y.D.D.Q.Q.Y.Q.Y.Y.Y.Y.Y.Q.Y.Y.Y.Y.Y.D.D.Y.Y.Y.Y.Y.Y.    ",
"    Y.Y.Y.Y.Y.Y.D.Y.Y.Y.Y.D.Y.Y.D.D.Y.Y.D.D.Y.Y.Y.D.Y.Q.Y.D.Y.Y.D.D.j.D.Y.Y.Y.Y.Y.Y.Q.Q.Y.Y.Y.Y.Y.D.Y.Y.Y.Y.Y.Q.Y.Y.Y.Y.D.Y.    ",
"    D.Y.Y.D.D.D.D.D.Y.Y.Y.Y.Y.Y.Y.Y.Y.Y.D.D.Y.Y.Y.D.Y.Y.Y.Y.Y.Y.D.D.D.Y.Y.Y.Y.Y.Y.Y.Y.Y.Y.Y.Y.Y.D.D.D.Y.Y.Y.Y.Y.Y.Y.Y.Y.D.Y.    ",
"    D.D.Y.Y.Y.D.D.D.D.Y.Y.Y.Y.Y.Y.Y.Y.Q.D.Y.D.D.D.Y.Y.Y.D.Y.Y.D.D.D.D.D.Y.D.D.Y.Y.Y.Y.Y.Y.Y.Y.Y.Y.j.D.Y.D.Y.Y.Y.Y.Y.Y.D.D.Y.    ",
"    Y.Y.Y.Y.Y.Y.D.Y.Y.Y.Y.Y.D.D.Y.Y.Y.Y.Y.Y.D.Y.Y.Y.Y.Y.D.Y.Y.Y.D.Y.Y.D.D.D.D.Y.Y.Y.D.Y.Q.Y.Y.Y.D.d.D.D.Y.Y.Y.j.Y.Y.Y.Y.D.Y.    ",
"    Y.D.D.D.D.Y.Y.Y.Y.Y.D.D.Y.Y.Y.Q.Q.Y.Y.Y.D.D.D.D.D.Y.D.D.Y.Y.Y.Y.Y.Y.D.D.D.Y.Y.Y.D.Y.Q.Y.Y.Y.D.D.D.D.Y.Y.Y.D.Y.Y.Q.Y.Y.Y.    ",
"    Y.D.D.Y.D.Y.Q.Q.Y.Y.Y.Y.D.Y.Y.Q.Y.Y.Y.D.D.D.D.D.D.D.D.D.Y.Y.Y.Y.Y.D.D.Y.j.Y.Y.Y.Y.Y.Y.Y.Y.D.D.j.D.D.D.Y.Y.Y.Y.Y.Q.Y.Y.Y.    ",
"    Y.D.D.Y.Y.Q.Y.Q.Y.Y.Y.Y.j.D.Y.Y.Y.D.Y.D.Y.Y.D.D.D.D.D.Y.Y.Y.Y.D.D.Y.Y.D.D.Y.Y.Y.Y.Y.Y.Y.Y.Y.D.j.D.D.D.Y.Y.Y.Y.Y.Y.D.D.Y.    ",
"    Q.Y.Y.Y.Y.Q.Q.Y.Q.Q.D.D.Y.Q.Y.Y.Y.Y.Y.Y.Y.Y.D.Y.D.D.D.D.D.j.D.D.D.D.D.D.Y.Y.Y.D.Y.Y.Y.Y.Y.Y.D.D.D.D.D.Y.Y.Y.Y.Y.Y.Y.D.Y.    ",
"    '.Y.Y.Y.Y.Y.Y.Y.Y.Y.Y.D.Y.Y.Y.Y.Y.Y.Y.Y.Y.Y.Y.D.D.D.D.D.Y.D.D.Y.D.j.d.D.Y.D.D.Y.Y.Y.Y.Y.D.D.D.D.D.Y.Y.Y.D.Y.Y.Y.Y.Y.Y.Q.    ",
"    Y.D.Y.Y.Y.Q.Q.Q.Q.Y.Q.Y.D.Y.Y.Y.D.Y.Q.Y.Y.Y.Y.D.D.D.Y.Y.Y.Y.D.D.D.Y.Y.Y.Y.D.D.D.Y.Y.Y.Y.D.D.D.D.j.j.Y.Y.Y.Y.Y.Y.Y.Q.Y.Y.    ",
"    Y.Y.Q.Y.Q.Y.Y.Y.Y.Y.Q.Y.D.Y.Y.Y.D.D.Y.Y.D.Y.Y.D.D.Y.Y.Y.Y.Y.D.D.Y.Y.Q.Y.Y.D.D.Y.Y.Y.Y.Y.D.Y.Y.D.D.D.Y.D.Y.Y.Y.Y.Y.Y.Y.Y.    ",
"    Y.Q.Y.Y.Y.Y.Y.Y.Y.Y.Y.Y.D.Y.Y.D.D.D.D.D.Y.Y.Y.D.D.D.Y.Y.Q.Q.D.D.Y.Y.Y.Y.D.D.Y.Y.Y.Y.Y.Y.j.D.Q.Y.Y.Y.D.D.D.Y.Y.Q.Y.Y.Y.D.    ",
"    Q.Y.Y.Y.Q.Q.Q.Q.Q.Y.Y.Y.Y.Y.Y.D.D.Y.D.D.Y.Y.Y.Y.D.D.Y.D.Y.Y.Y.D.Q.Y.Y.Y.D.Y.Y.Y.Y.D.D.Y.Y.Y.Y.Y.Y.Y.Y.D.Y.Y.Y.Y.Y.D.D.d.    ",
"    Q.Y.D.Q.Q.Q.Q.Q.Y.D.Y.Q.Q.Y.Y.Y.Y.Y.Y.Y.Y.Y.Y.Y.Y.Q.Q.D.Y.Y.Q.Y.Y.D.Y.Y.Y.Y.Y.D.D.Y.D.D.Y.Y.Y.Y.Y.D.Y.Y.D.D.Y.Y.Y.D.D.Y.    ",
"    Q.Y.Y.Y.Y.Q.Y.Y.Y.Y.Y.Y.Q.Y.Y.Y.Q.Y.Y.Y.Y.Y.Y.Y.Q.Q.Q.Y.Y.Y.Y.D.D.D.D.Y.Y.D.Y.D.Y.Y.Y.Y.Y.Y.Y.Y.Y.D.D.Y.D.D.D.Y.Y.Y.Y.Q.    ",
"    Q.Q.Y.Y.Y.Y.Y.D.D.D.Q.Y.Y.Q.Y.Y.Y.Y.Y.Y.Y.Q.Y.D.Y.'.Q.Y.Y.Q.Y.D.Y.Y.D.Y.Y.Y.Y.D.Y.Q.D.j.j.y.j.D.D.D.D.Y.Y.d.t.Y.Y.Y.Q.Q.    ",
"    5.1.&.&.&./ / / / &.:.1.7.1.&.&.X.:.:.5.:.&./ &.1.7.7.w.r.w.1.&.&.&.:.1.&.&./ E / X./ E U U R ~ E / / | &.E R / / :.7.7.    ",
"    B u u u u u u u u u u u u u u u u u u u B b u B B B B B B u B B u B u u u u u u u B b u b b u u u u u % u u u u u u b u     ",
"    b u u u u u u u u u u u u u n u b b u b B B B b B B B n n b b n b b B B u u b b B B B b B n u u u u u u u % u u u u n n     ",
"    B u u u u u % u u u u u u u u % u u u b B B u b b n b u b b B b B B u B b b B b u u u u u u u u u u B B % . u u u b B B     ",
"    u u u u u u u u u u u % u u u % u b u b B B u b b u u u u u u u u n u n b u u u u u b B u u u u b B B b u X u u u B n u     ",
"    u u X u u u u u u u u % u u u u B B u u B n u b b u u % u b u u B b b B u u b n u u u b u B n u b B b b u u u u u u u u     ",
"    u u X u b u u u u u u u b u u u b B b u u u u u u u u % u u u u b n B b b B n B n u u B B B n u u u u u b u b u n u u u     ",
"    b u u u u u b u u n u u B u b u u b u u b % u u u u u u u u u u u B B B B B B n n n B b b B B u u u u u B u u u b u u b     ",
"    u u u u u u u b u B u u u u n u u u u u u u u u u u u u u u u u n B B B B B b u B B b u b B n B u u u b B u u u u u u u     ",
"      u u u B u u B b b B u b B B B B u u u B u u b b M B B u u u b B B B B B B B B B B B B B B u B B B b B B B u u B B u       ",
"                                                                                                                                ",
"                                                                                                                                "
};
