/* XPM */
static char *wall[] = {
/* columns rows colors chars-per-pixel */
"64 43 204 2 ",
"   c #5D2C1D",
".  c #602916",
"X  c #652718",
"o  c #632C1E",
"O  c #6C2C1C",
"+  c #722D1D",
"@  c #6C321E",
"#  c #77351B",
"$  c #7C341C",
"%  c #572D21",
"&  c #5A2E24",
"*  c #5A2E28",
"=  c #553124",
"-  c #5B3324",
";  c #5D352B",
":  c #5C3A2B",
">  c #55382B",
",  c #5E3A30",
"<  c #622F23",
"1  c #6B2F21",
"2  c #722F20",
"3  c #643324",
"4  c #6B3323",
"5  c #673A26",
"6  c #6C3926",
"7  c #643629",
"8  c #693728",
"9  c #653B2B",
"0  c #6C3C2B",
"q  c #733423",
"w  c #7B3423",
"e  c #743A25",
"r  c #7C3A25",
"t  c #723528",
"y  c #7D3728",
"u  c #743C2A",
"i  c #7B3C2A",
"p  c #663D31",
"a  c #6B3F30",
"s  c #6D402D",
"d  c #764027",
"f  c #7F4226",
"g  c #74422D",
"h  c #7B432C",
"j  c #7E482E",
"k  c #644032",
"l  c #6D4332",
"z  c #744432",
"x  c #7C4532",
"c  c #754A35",
"v  c #7C4B35",
"b  c #764C39",
"n  c #7C4D3A",
"m  c #7D5236",
"M  c #75503C",
"N  c #7B523C",
"B  c #7C5441",
"V  c #7F5844",
"C  c #842E1C",
"Z  c #902D18",
"A  c #85331E",
"S  c #8B331C",
"D  c #853A1D",
"F  c #8E3B1E",
"G  c #93351B",
"H  c #98361A",
"J  c #923B1E",
"K  c #9B3C1C",
"L  c #A13D1B",
"P  c #843522",
"I  c #8A3521",
"U  c #843B25",
"Y  c #8B3C24",
"T  c #883728",
"R  c #833C2B",
"E  c #8A3E2A",
"W  c #83372A",
"Q  c #913722",
"!  c #923D23",
"~  c #9A3F21",
"^  c #913F28",
"/  c #853F30",
"(  c #8A3F31",
")  c #87481F",
"_  c #9D421E",
"`  c #91411C",
"'  c #844126",
"]  c #8C4225",
"[  c #8D4825",
"{  c #84432C",
"}  c #8B442B",
"|  c #834A2E",
" . c #8C4A2D",
".. c #844826",
"X. c #924323",
"o. c #9B4424",
"O. c #934826",
"+. c #9B4D27",
"@. c #92452B",
"#. c #9D4529",
"$. c #924B2D",
"%. c #9C4C2C",
"&. c #86502F",
"*. c #8D532D",
"=. c #915027",
"-. c #96502F",
";. c #9B522E",
":. c #925A2E",
">. c #834532",
",. c #8B4631",
"<. c #844B34",
"1. c #8B4C33",
"2. c #834E39",
"3. c #8A4D39",
"4. c #934732",
"5. c #934C33",
"6. c #984F33",
"7. c #924E3A",
"8. c #845235",
"9. c #8C5135",
"0. c #8C5A36",
"q. c #84533C",
"w. c #8C533B",
"e. c #855A3E",
"r. c #8C5A3D",
"t. c #935234",
"y. c #9A5334",
"u. c #955936",
"i. c #9B5A34",
"p. c #93543B",
"a. c #9C553B",
"s. c #945A3C",
"d. c #9B5B3C",
"f. c #A14423",
"g. c #A04B27",
"h. c #A14A2A",
"j. c #A1532D",
"k. c #A04E30",
"l. c #A25633",
"z. c #A35B34",
"x. c #A0573C",
"c. c #A25C3B",
"v. c #8F633D",
"b. c #93613F",
"n. c #9C613E",
"m. c #A26036",
"M. c #A2623A",
"N. c #845442",
"B. c #8C5542",
"V. c #855A43",
"C. c #8C5C43",
"Z. c #845D49",
"A. c #8B5D4A",
"S. c #945641",
"D. c #9B5740",
"F. c #945C43",
"G. c #9A5D43",
"H. c #945D48",
"J. c #9C5F48",
"K. c #A25E41",
"L. c #A05E48",
"P. c #8E6145",
"I. c #85624C",
"U. c #8D634B",
"Y. c #946244",
"T. c #9B6344",
"R. c #9E6945",
"E. c #95644A",
"W. c #9A654A",
"Q. c #9B644A",
"!. c #96694D",
"~. c #9C6A4D",
"^. c #8B6350",
"/. c #966451",
"(. c #9F6450",
"). c #956B53",
"_. c #9C6C52",
"`. c #916D59",
"'. c #9C7254",
"]. c #9F7459",
"[. c #957359",
"{. c #A26145",
"}. c #A26344",
"|. c #A86547",
" X c #A26946",
".X c #A1664A",
"XX c #A2654A",
"oX c #AB6748",
"OX c #A26C4E",
"+X c #A36A4D",
"@X c #A86B4C",
"#X c #A1704E",
"$X c #A9724F",
"%X c #A26D53",
"&X c #A26C52",
"*X c #AA6850",
"=X c #A16E58",
"-X c #A37355",
";X c #A87656",
":X c #A37459",
">X c #A77959",
",X c #AA7C5E",
"<X c #A77B61",
"1X c #A87A60",
/* pixels */
"p.t.W.9.1.,.5.5.5.5.5.5.p.T.g.O.O.Q #.#.#.~ G G.F.U U I W W W U W W F.} } } } T W W U ' } 9.W ' W W W ' W w i 9.W I T T W W } W ",
"W.c.K.d.d.%XQ.G.G.G._._.Y.W.T.Q.~. X X X X-X@X-X-XQ./.Q.Q.Q.Q.F.~.#X-XF.Y.P.s.F.s.s.C.9.q.q.F.F.F.W.F.9.C.C.F.W.S.S.F.C.3.3.9.n ",
"d.o.o.~ K @X5.^ } Q p.p.J ] Y 5.K.L f._ o.%X$.-.$.] %X$.] } Y Y.R.m.i.M.R.T.z.z.-.+.b.' q h y.Q.a.5.5.[ Q. XO.t.y.d.H.} W W ,.q.",
"R.+.+.+.o.OX7.Y } Q Q.s.Y ] Y F. XL f.K f.%X$.[ ] ] =XO.S Y S J.Q.i.M.M. XOX+.y.-.O.C.# # 5.d.OXp.} O.} G.a.J X.Q 5.S.I q w w 2.",
"F.p.Y.T.p.T.d.1.s.t.OX@Xd.Y.C.C.W.1.p.p.p.W.<.q.r.F._.9.>.| | W.F.| 9.9.Y.:Xn.T.G.F.[.r.9.p.1._.OXp.p.' F.Q.5.1.>.9.H.W i u 0 B.",
"] I 7.l.o.o.o.o.o.o.J o.L T.1.I I W U y W I I ,.T.X.} } } ..*.[ } } 9.1.O.} $.O.O.O.O.O.F.s.a.5.5.5.6.5.O.} } B.>.W W ( / >.i W ",
"Y I G.c.o.o.+.o.o.o.X.X.K %X5.I I U U w I I A T G.` ] F Y U X.] Y F p.O.Y Y Y Y T T I C 5.t.X.O.O.$.^ ^ T T I S.Y I I I W W T W ",
"Q.G.%XOXd.W.Q.@XG.G.G.G. X;X@X@X_.OXOXOXG._.T.F.-X XQ.~.%XOXOX-X-XQ.:X_.s.F.G.T.Q.G.B.F.-X_.G.F.p.G.G.p.9.p.p._.9.7.9.9.1.3.3.z ",
"(.5.5.5.$._.5.} } } G.c.o.o.o.g.OXo.o.o.o.OXl.k.+.o. XOX+.l.l.c.-X9.[ t.t.%Xc.y.t.5.Y.s.t.d.M.R.9.1.9.,.B.Q.a.a.t.G.W.t.p.p.9.<.",
"%X5.5.$.O.1Xp.$.1.$.T.c.K o.K o.|.K J Q G @X#.~ ~ H  XOXJ #.o.g.OX=.[ ] ] %X+.X.Y Y p.$.$.i.i. X3.W >.W 9.L.4.5.4.p.S.T 1.,.1.3.",
"%XY.W.P.F.1XOX@XQ.G.%XQ.t.T.d.G.,X|.*X X X;XOXF.F.d.%X-Xd.G.@XOX,XR.b.T.T.1XR.n.T.T.1XQ.n.s.F.-XQ.9.F.9.W.Q.9.9.p.F.C.3.9.1.9.A.",
"O.X.G.C.' ' O.Q Q ^ Q O.] s.p.O.$.5.} O.} 5.} >.F.O.+.+.$.$.t.d.y.-.T.v.:.&.| t.$.$.$.6.+.W.p.t.t.t.5.5.5.5.} 9.5.} } ,.,./ / W ",
"O.F G.Y.# U Q Y Y I I Y S p.O.Z I Y S S Y Y I i G.S Q Q J J J o.o.o. Xs.) r ' ] F F F J J %X5.O.} } Y Y Y Y I ,.^ I T U U w w w ",
"~.d.OX_.9.F.@XG.Q.J.T.Q.G.:X@Xa.G.G.G.W.F.F.F.U.:Xt.s.y.y.d.d.c. X@X>X'.0.r.Y.T.s.d.G.d.y.'.Q.Q.@XT.T.T.Q.Q.S.H.p.,.>.3.3.2.<.x ",
"OX+.+.+.+.d.d.l.l.l.M.d.O.5.5.t.Q.y.y.x.+.Q.F.5.5.1.F.n.j.-.-.i.~.d.s.s.s.Q.s.p.s.p._.G.5.t.$.~.OXy.p.t.F.W.<.<.<.1.2.x x x u 2.",
" X_ g.g.o. Xy.o.o.o.+.p.J X.Q Q Q.J J G G G.5.Y } U 1.d._ _ _ +.Y.] [ Y A p.5.5.5.[ C.p.O.O.Y s.d.$.} } 1.Y.' } U } C.t t t t q.",
"W.[ p.p.t.:X%Xa.d.K.OXY.y.s.G.OX:Xy.d.a.$._.r.1.9.t.~.#X[ $.$.u.'.1.9.s.9.~.T.p.T.F.].r.9.p.1.!.C.<.9.1.p._.j <.<.B.).0 z x x C.",
"} T 3.9.W 5.5.[ 1.,.[ } } W.p.p.5.t.p.5.1.} } t.F.O.+.y.y.O.$.$.c.i.r.n.y.i.y.5.t.$.y.$.1.!.s.p.9.9.9.9.9.1.>.9.p.p.d.} ' ' 1.9.",
"U I 5.x + } Y C A ] ] Y A G.I A S I Y Y A C C } d.S Q o.g.X.Y ] -.j.n.-.` X.J X.F G J J Y Y.5.5.5.} [ } } T U 1.] X.6.T I A [ [ ",
"F.9.Q.I.B F.p.9.9.T.s.F.F._.p.p.9.1.1.1.1.1.1.F.T.$.} } [ $.1.[ t.t.-XOXt.t.p.d.s.t.t.t.s.-Xp.9.<.<.1.9.1.1.,.r.9.t.<.' } } u.t.",
"'.d.d.n.d.~.d.y.5.} p.).1.9.t.t.W.p.,.1.5.F.p.y.5.$.1.e.9.s.s.s.e.8.r.F.r.).F.F.9.9.~.~.d.d.s.F.r.t.t.t.p.C.9.9.1.9.n h 1.1.9.N ",
"Y.X.] } [ W.[ ' U # 1.Y.U } ] ] F.U Y T I 9.} S Y F $.b.$.$.} [ v.U ' f i Z.[ [ U U 9.d.t.t.y.d.u.$.O.$.5.9.' g u u <.w w q 4 0 ",
").<.q.9.9.!.9.9.9.<.9.).9.<.9.p._.1.1.9.p.Y.F.9.>.9.s.W.9.9.9.r.).<.2.N q.U.q.v q.2.Z.C.v v <.q.q.<.<.h <.e.v n z v C.x x x n q.",
"<.h C.q.i u 0 l z 0 0 u u Z.B.x x v 8.9.q.g g h r.C.1.9.1.<.8.8.9.s.n.P.h i g z 0 z z 0 0 z 8.g u u g g 0 s 0 z q.z z l p p p 0 ",
"g e 9.' q 4 4 4 4 3 4 o X 3.u 4 q 4 4 e 4 4 4 O r.g e u e 4 6 u u g *.r.O # w r 4 4 4 4 4 <.2.q e 4 4 4 3 < 3 e n ; ; * & 3 <   ",
"h g v g 4 e g g v h h x h C.x u i e u u u i u u P.n u h h u j h g g 8.C.g g x h x x z u 0 b M 5 4 8 8 : p 0 5 z n 5 p 0 p 0 p 0 ",
"C.q.q.v z I.>.<.1.1.q.^.3.9.3.>.Z.2.<.2.x 9.Z.9.9.9.<.U.r.8.m v C.Z.z l z N I.q.B.m <.q.n z N v N M z n n 2.U.v n n x Z.l l l x ",
"0.| <.h g U.q @ 6 @ v q.O 6 4 4 C.i e e q x C.# i r r Y.h 5 : i <.z 3 3 t 0 W.e 6 0 0 v z 0 0 u 9.v 3 0 6 0 B.0 : 5 5 B 3 - = < ",
"m 5 0 3 5 `.v e u u q.Z.3 0 5 3 I.v e u e x N @ i u r F.z 5 p z N b 3 0 0 l U.l 0 u 5 b z 0 l 0 n b - : : k N p : , , N z p 5 0 ",
"8.z l 2.n B.C.Z.B.q.q.B.9.Z.x v q.q.q.q.h v N x q.0 x q.b Z.F.1.q.m j N v v z 8.Z.N v Z.n l N n M z z b z b n z z B l N b B U.b ",
"I 9.9.U ' ' U A.v h e ' <.N e h ' # 3.9.e e & 3 N 5 - - % n r.e 0 0 | C.e 0 0 6 8.v 6 g 0 g Z.0 s 5 5 B g 6 6 3 0 z = < & - b > ",
"+ 2.C.r i i i U.v 6 5 e <.A.4 3 q # 2.<.@ -   3 V 3   o o z 8.O 4 8 e C.u 6 3 3 Z.q.6 0 0 v W.5 : > = V l - 5 ; l N - & - 5 N : ",
"B.B.Z.n n q.n B U.n n B.B.A.B.B.z v C.N z l g n Z.B B.Z.B.B A.B.B.v v N z z b n Z.A.N b z z V N n N v q.q.b N q.2.C.B.B.B.b n n ",
"i i i i h ' i q u Z.<.r i i i u e r r r <.x w i W u 0 0 u u W v 8.| | g g j g h h h 2.q.u h h <.z z x z x n <.h h x g x u u 0 0 ",
"q 1 4 4 4 o 4 o . n q + 2 O o O O o q q x x O + O 3 < 1 q 4 1 u 8.d u h 0 5 ; 5 0 6 g N 8 0 0 0 : - : 5 : z B.p 5 p p p 8 5 , ; ",
"h i v v <.q.q.v v W.<.i h z v 3.<.v h x ).q.i h x q.2.<.9.x x B.r.j x h j g g z g s m C.z g v v x z l l s z C.z z z v z p z l z ",
"e q.d.+.-.$.-.#X9.' } } 9.W.1.1.5.1.9.<.1.[ } s.Y.t.t.t.t.Y.1.1.} [ p.Y.u.[ [ [ Y.q.<.| [ 9.s.t.t.5.1.q.W >.' W 2.q.h h i <.1.' ",
"O >.$.Y ] D D T.' I I I } 1.A I I I 1.w Y Y D 5.r.U Y Y Y r.U U } Y 5.F.$.] ' ] Y.| r r r <.1.' [ [ $.<.w w r I 9.>.q q q i ' y ",
"i 9.t.' [ $.' _.1.T } U 1.Q.} } } } Q.1.} } ] p.Q.} [ 1.1.!.1.[ 1.$.F._.t.1.9.9._.9.' <.>.F.s.<.<.1.9.C.i i i U F.>.i h u x 2.>.",
"<.9.1.1.9.1.9.s.t.p.~.F.F.F.9.t.t.t.s.p.d._.9.9.S.9.9.9.9.T.s.F._.B.B.F.B.2.9.B.C.9.>.W.F.p.t.9.8.9.<.9.<.3.W.<.<.<.<.>.<.>.x >.",
"# A U Y U r W U # A s.} ' U Y X.F D A ] F G.r U Y } U U Y X.O.U s.i w i r w w q q i + 9.$.U U U T } } U r i C.i W W W r i i i i ",
"r U ] ] Y Y U U U U Q.} } U ] ] ] Y Y X.X.T.' r U U U Y ] Y ] ] 9.h r ' r e r i i i r P.<.' } ' ' >.>.' h | U.>.' ' >.>.>.i i u ",
"Y.P.P.s.p.p.s.r.F.T.Q.9.s.Y.t.t.p.t.G.s.s.~.W.F.C.r.r.F.G.F.P.F.~.Y.T._.Q.F.F.C.C.C._.'.Y.r.P.H.F.s.9.U.W.q.Z.C.e.C.9.2.v v n v "
};
